<?xml version="1.0" encoding="utf-8"?>
<!-- Generator: Adobe Illustrator 18.1.1, SVG Export Plug-In . SVG Version: 6.00 Build 0)  -->
<svg version="1.1" id="Layer_1" xmlns="http://www.w3.org/2000/svg" xmlns:xlink="http://www.w3.org/1999/xlink" x="0px" y="0px"
	 viewBox="0 64.3 180 51.4" enable-background="new 0 64.3 180 51.4" xml:space="preserve">
<g>
	<g>
		<path fill="#020202" d="M169.7,115.7H10.3c-5.7,0-10.3-4.6-10.3-10.3V74.6c0-5.7,4.6-10.3,10.3-10.3h159.4
			c5.7,0,10.3,4.6,10.3,10.3v30.9C180,111.1,175.4,115.7,169.7,115.7z"/>
	</g>
	<g>
		<g>
			<polygon fill="#FFFFFF" points="25.7,89.6 37.7,89.6 37.7,78.9 25.7,80.4 			"/>
		</g>
		<g>
			<polygon fill="#FFFFFF" points="24.9,89.6 24.9,80.5 15.4,81.7 15.4,89.6 			"/>
		</g>
		<g>
			<polygon fill="#FFFFFF" points="25.7,90.4 25.7,99.6 37.7,101.1 37.7,90.4 			"/>
		</g>
		<g>
			<polygon fill="#FFFFFF" points="24.9,90.4 15.4,90.4 15.4,98.3 24.9,99.5 			"/>
		</g>
	</g>
	<g>
		<rect x="49" y="79" fill="none" width="117.4" height="25.8"/>
	</g>
	<g enable-background="new    ">
		<path fill="#FFFFFF" d="M49.9,86.6v-7.2h2c2.5,0,3.8,1.2,3.8,3.5c0,1.1-0.4,2-1.1,2.7c-0.7,0.7-1.6,1-2.8,1H49.9z M50.8,80.2v5.7
			h1.1c0.9,0,1.7-0.3,2.2-0.8s0.8-1.2,0.8-2.1c0-1.8-1-2.8-2.9-2.8C52,80.2,50.8,80.2,50.8,80.2z"/>
		<path fill="#FFFFFF" d="M59.2,86.7c-0.8,0-1.4-0.2-1.8-0.7s-0.7-1.1-0.7-1.9c0-0.9,0.2-1.5,0.7-2s1.1-0.7,1.9-0.7
			c0.8,0,1.4,0.2,1.8,0.7s0.6,1.1,0.6,2c0,0.8-0.2,1.5-0.7,2C60.6,86.5,60,86.7,59.2,86.7z M59.3,82c-0.5,0-0.9,0.2-1.3,0.5
			s-0.5,0.9-0.5,1.5s0.2,1.1,0.5,1.4s0.7,0.5,1.3,0.5c0.5,0,0.9-0.2,1.2-0.5s0.4-0.8,0.4-1.5c0-0.6-0.1-1.1-0.4-1.5S59.8,82,59.3,82
			z"/>
		<path fill="#FFFFFF" d="M69.6,81.5L68,86.6h-0.9L66,82.9c0-0.1-0.1-0.3-0.1-0.5l0,0c0,0.1,0,0.3-0.1,0.5l-1.2,3.7h-0.8l-1.6-5.1
			h0.9l1.1,3.9c0,0.1,0.1,0.3,0.1,0.5l0,0c0-0.1,0-0.3,0.1-0.5l1.2-3.9h0.8l1.1,3.9c0,0.1,0.1,0.3,0.1,0.5l0,0c0-0.1,0-0.3,0.1-0.5
			l1-3.9H69.6z"/>
		<path fill="#FFFFFF" d="M74.8,86.6H74v-2.9c0-1.1-0.4-1.6-1.2-1.6c-0.4,0-0.8,0.2-1,0.5c-0.3,0.3-0.4,0.7-0.4,1.2v2.9h-0.8v-5.1
			h0.8v0.9l0,0c0.4-0.6,1-1,1.7-1c0.6,0,1,0.2,1.3,0.5c0.3,0.4,0.4,0.9,0.4,1.6V86.6z"/>
		<path fill="#FFFFFF" d="M77.1,86.6h-0.8V79h0.8V86.6z"/>
		<path fill="#FFFFFF" d="M81,86.7c-0.8,0-1.4-0.2-1.8-0.7s-0.7-1.1-0.7-1.9c0-0.9,0.2-1.5,0.7-2s1.1-0.7,1.9-0.7s1.4,0.2,1.8,0.7
			s0.6,1.1,0.6,2c0,0.8-0.2,1.5-0.7,2C82.4,86.5,81.7,86.7,81,86.7z M81,82c-0.5,0-0.9,0.2-1.3,0.5s-0.5,0.9-0.5,1.5
			s0.2,1.1,0.5,1.4S80.5,86,81,86s0.9-0.2,1.2-0.5s0.4-0.8,0.4-1.5c0-0.6-0.1-1.1-0.4-1.5S81.6,82,81,82z"/>
		<path fill="#FFFFFF" d="M88.4,86.6h-0.8v-0.8l0,0c-0.4,0.6-0.9,0.9-1.6,0.9c-0.5,0-0.9-0.1-1.2-0.4c-0.3-0.3-0.4-0.6-0.4-1.1
			c0-1,0.6-1.5,1.7-1.7l1.5-0.2c0-0.9-0.4-1.3-1.1-1.3c-0.6,0-1.2,0.2-1.7,0.6v-0.8c0.5-0.3,1.1-0.5,1.7-0.5c1.2,0,1.8,0.6,1.8,1.9
			L88.4,86.6L88.4,86.6z M87.6,84l-1.2,0.2c-0.4,0.1-0.7,0.1-0.9,0.3c-0.2,0.1-0.3,0.4-0.3,0.7c0,0.3,0.1,0.5,0.3,0.6
			s0.4,0.2,0.7,0.2c0.4,0,0.7-0.1,1-0.4s0.4-0.6,0.4-1.1V84z"/>
		<path fill="#FFFFFF" d="M94.3,86.6h-0.8v-0.9l0,0c-0.4,0.7-1,1-1.8,1c-0.6,0-1.2-0.2-1.5-0.7c-0.4-0.5-0.6-1.1-0.6-1.9
			c0-0.9,0.2-1.5,0.6-2s1-0.8,1.7-0.8s1.2,0.3,1.5,0.8l0,0V79h0.8v7.6H94.3z M93.5,84.3v-0.8c0-0.4-0.1-0.8-0.4-1.1
			c-0.3-0.3-0.6-0.4-1-0.4c-0.5,0-0.9,0.2-1.2,0.6c-0.3,0.4-0.4,0.9-0.4,1.5s0.1,1.1,0.4,1.4S91.5,86,92,86s0.8-0.2,1.1-0.5
			S93.5,84.8,93.5,84.3z"/>
		<path fill="#FFFFFF" d="M101.4,79.7c-0.2-0.1-0.3-0.1-0.5-0.1c-0.6,0-0.9,0.4-0.9,1.1v0.8h1.2v0.7H100v4.4h-0.8v-4.4h-0.9v-0.7
			h0.9v-0.8c0-0.5,0.2-1,0.5-1.3s0.7-0.5,1.2-0.5c0.3,0,0.5,0,0.6,0.1L101.4,79.7L101.4,79.7z"/>
		<path fill="#FFFFFF" d="M104.7,82.3c-0.1-0.1-0.4-0.2-0.6-0.2c-0.4,0-0.6,0.2-0.9,0.5c-0.2,0.3-0.4,0.8-0.4,1.4v2.6H102v-5.1h0.8
			v1.1l0,0c0.1-0.4,0.3-0.6,0.5-0.8s0.5-0.3,0.8-0.3c0.2,0,0.4,0,0.5,0.1L104.7,82.3L104.7,82.3z"/>
		<path fill="#FFFFFF" d="M107.6,86.7c-0.8,0-1.4-0.2-1.8-0.7c-0.5-0.5-0.7-1.1-0.7-1.9c0-0.9,0.2-1.5,0.7-2s1.1-0.7,1.9-0.7
			s1.4,0.2,1.8,0.7s0.6,1.1,0.6,2c0,0.8-0.2,1.5-0.7,2C109,86.5,108.4,86.7,107.6,86.7z M107.7,82c-0.5,0-0.9,0.2-1.3,0.5
			c-0.3,0.4-0.5,0.9-0.5,1.5s0.2,1.1,0.5,1.4s0.7,0.5,1.3,0.5c0.5,0,0.9-0.2,1.2-0.5s0.4-0.8,0.4-1.5c0-0.6-0.1-1.1-0.4-1.5
			S108.2,82,107.7,82z"/>
		<path fill="#FFFFFF" d="M118.8,86.6H118v-3c0-0.6-0.1-1-0.3-1.2s-0.5-0.4-0.9-0.4s-0.7,0.2-0.9,0.5c-0.2,0.3-0.4,0.7-0.4,1.2v2.9
			h-0.8v-3.1c0-1-0.4-1.5-1.2-1.5c-0.4,0-0.7,0.2-0.9,0.5s-0.4,0.7-0.4,1.2v2.9h-0.8v-5.1h0.8v0.8l0,0c0.4-0.6,0.9-0.9,1.6-0.9
			c0.4,0,0.7,0.1,0.9,0.3c0.3,0.2,0.4,0.5,0.5,0.8c0.4-0.7,1-1.1,1.7-1.1c1.1,0,1.7,0.7,1.7,2.1v3.1H118.8z"/>
	</g>
	<g enable-background="new    ">
		<path fill="#FFFFFF" d="M60.1,92.6l-2.4,8.4h-1.2l-1.7-6.1c-0.1-0.3-0.1-0.5-0.1-0.9l0,0c0,0.3-0.1,0.6-0.2,0.8l-1.7,6.2h-1.1
			l-2.5-8.4h1.1L52,99c0.1,0.3,0.1,0.6,0.1,0.8l0,0c0-0.2,0.1-0.5,0.2-0.8l1.9-6.4h0.9l1.8,6.5c0.1,0.2,0.1,0.5,0.1,0.8l0,0
			c0-0.2,0.1-0.5,0.2-0.8l1.7-6.5H60.1z"/>
		<path fill="#FFFFFF" d="M61.7,93.5c-0.2,0-0.3-0.1-0.4-0.2s-0.2-0.3-0.2-0.4s0.1-0.3,0.2-0.4s0.3-0.2,0.4-0.2
			c0.2,0,0.3,0.1,0.4,0.2s0.2,0.3,0.2,0.4c0,0.2-0.1,0.3-0.2,0.4S61.8,93.5,61.7,93.5z M62.1,101h-1v-6h1V101z"/>
		<path fill="#FFFFFF" d="M69.1,101h-1v-3.4c0-1.3-0.5-1.9-1.4-1.9c-0.5,0-0.9,0.2-1.2,0.5S65,97,65,97.6v3.4h-1v-6h1v1l0,0
			c0.5-0.8,1.1-1.1,2-1.1c0.7,0,1.2,0.2,1.5,0.6s0.5,1,0.5,1.8L69.1,101L69.1,101z"/>
		<path fill="#FFFFFF" d="M76,101h-1v-1l0,0c-0.4,0.8-1.1,1.2-2.1,1.2c-0.8,0-1.4-0.3-1.8-0.8s-0.7-1.3-0.7-2.2c0-1,0.2-1.8,0.8-2.4
			s1.2-0.9,2-0.9s1.4,0.3,1.8,1l0,0v-3.7h1C76,92.2,76,101,76,101z M75,98.3v-0.9c0-0.5-0.2-0.9-0.5-1.2s-0.7-0.5-1.2-0.5
			c-0.6,0-1,0.2-1.4,0.6s-0.5,1-0.5,1.8c0,0.7,0.2,1.2,0.5,1.6s0.8,0.6,1.3,0.6s1-0.2,1.3-0.6S75,98.9,75,98.3z"/>
		<path fill="#FFFFFF" d="M80.5,101.1c-0.9,0-1.6-0.3-2.1-0.8s-0.8-1.3-0.8-2.2c0-1,0.3-1.8,0.8-2.4s1.3-0.8,2.2-0.8
			c0.9,0,1.6,0.3,2.1,0.8s0.8,1.3,0.8,2.3s-0.3,1.7-0.8,2.3S81.4,101.1,80.5,101.1z M80.5,95.7c-0.6,0-1.1,0.2-1.5,0.6
			s-0.5,1-0.5,1.7s0.2,1.3,0.5,1.7s0.8,0.6,1.5,0.6c0.6,0,1.1-0.2,1.4-0.6s0.5-1,0.5-1.7c0-0.8-0.2-1.3-0.5-1.7S81.1,95.7,80.5,95.7
			z"/>
		<path fill="#FFFFFF" d="M92.5,95l-1.8,6h-1l-1.2-4.3c0-0.2-0.1-0.3-0.1-0.6l0,0c0,0.1-0.1,0.3-0.1,0.5l-1.3,4.3h-1l-1.8-6h1
			l1.2,4.5c0,0.1,0.1,0.3,0.1,0.5l0,0c0-0.2,0-0.4,0.1-0.6L88,95h0.9l1.2,4.5c0,0.1,0.1,0.3,0.1,0.5l0,0c0-0.2,0-0.3,0.1-0.5
			l1.2-4.5H92.5z"/>
		<path fill="#FFFFFF" d="M93.3,100.8v-1c0.5,0.4,1.1,0.6,1.7,0.6c0.8,0,1.3-0.3,1.3-0.8c0-0.2,0-0.3-0.1-0.4S96,99,95.9,98.9
			s-0.3-0.2-0.4-0.2s-0.3-0.1-0.5-0.2c-0.3-0.1-0.5-0.2-0.7-0.3s-0.4-0.2-0.5-0.4s-0.2-0.3-0.3-0.5s-0.1-0.4-0.1-0.6
			c0-0.3,0.1-0.5,0.2-0.7s0.3-0.4,0.5-0.5s0.5-0.3,0.7-0.3s0.6-0.1,0.9-0.1c0.5,0,1,0.1,1.4,0.3v1c-0.4-0.3-0.9-0.4-1.5-0.4
			c-0.2,0-0.3,0-0.5,0.1s-0.3,0.1-0.4,0.2s-0.2,0.2-0.2,0.3s-0.1,0.2-0.1,0.3c0,0.2,0,0.3,0.1,0.4s0.1,0.2,0.2,0.3s0.2,0.2,0.4,0.2
			s0.3,0.1,0.5,0.2c0.3,0.1,0.5,0.2,0.7,0.3s0.4,0.2,0.5,0.4s0.3,0.3,0.3,0.5s0.1,0.4,0.1,0.6c0,0.3-0.1,0.6-0.2,0.8
			s-0.3,0.4-0.5,0.5s-0.5,0.3-0.8,0.3s-0.6,0.1-0.9,0.1C94.3,101.1,93.7,101,93.3,100.8z"/>
		<path fill="#FFFFFF" d="M103.1,97.8v3.2h-1v-8.4h2.3c0.9,0,1.6,0.2,2.1,0.7s0.7,1.1,0.7,1.9s-0.3,1.4-0.8,2s-1.3,0.8-2.2,0.8h-1.1
			V97.8z M103.1,93.5v3.4h1c0.7,0,1.2-0.2,1.6-0.5s0.5-0.7,0.5-1.3c0-1.1-0.7-1.7-2-1.7L103.1,93.5L103.1,93.5z"/>
		<path fill="#FFFFFF" d="M113.7,101h-1v-3.5c0-1.2-0.5-1.9-1.4-1.9c-0.5,0-0.9,0.2-1.2,0.5s-0.5,0.8-0.5,1.4v3.4h-1V92h1v4l0,0
			c0.5-0.8,1.1-1.1,2-1.1c1.4,0,2,0.8,2,2.4L113.7,101L113.7,101z"/>
		<path fill="#FFFFFF" d="M118,101.1c-0.9,0-1.6-0.3-2.1-0.8s-0.8-1.3-0.8-2.2c0-1,0.3-1.8,0.8-2.4s1.3-0.8,2.2-0.8
			c0.9,0,1.6,0.3,2.1,0.8S121,97,121,98s-0.3,1.7-0.8,2.3S119,101.1,118,101.1z M118.1,95.7c-0.6,0-1.1,0.2-1.5,0.6s-0.5,1-0.5,1.7
			s0.2,1.3,0.5,1.7s0.8,0.6,1.5,0.6c0.6,0,1.1-0.2,1.4-0.6s0.5-1,0.5-1.7c0-0.8-0.2-1.3-0.5-1.7S118.7,95.7,118.1,95.7z"/>
		<path fill="#FFFFFF" d="M127.6,101h-1v-3.4c0-1.3-0.5-1.9-1.4-1.9c-0.5,0-0.9,0.2-1.2,0.5s-0.5,0.8-0.5,1.4v3.4h-1v-6h1v1l0,0
			c0.5-0.8,1.1-1.1,2-1.1c0.7,0,1.2,0.2,1.5,0.6s0.5,1,0.5,1.8L127.6,101L127.6,101z"/>
		<path fill="#FFFFFF" d="M134.2,98.2H130c0,0.7,0.2,1.2,0.5,1.5s0.8,0.5,1.4,0.5c0.7,0,1.3-0.2,1.9-0.7v0.9
			c-0.5,0.4-1.2,0.6-2.1,0.6c-0.8,0-1.5-0.3-2-0.8S129,99,129,98c0-0.9,0.3-1.7,0.8-2.3s1.2-0.9,2-0.9s1.4,0.3,1.8,0.8
			s0.6,1.2,0.6,2.1L134.2,98.2L134.2,98.2z M133.2,97.4c0-0.6-0.1-1-0.4-1.3s-0.6-0.5-1.1-0.5s-0.8,0.2-1.2,0.5s-0.5,0.7-0.6,1.3
			H133.2z"/>
		<path fill="#FFFFFF" d="M138.7,100.7v-1.2c0.1,0.1,0.3,0.2,0.5,0.3s0.4,0.2,0.6,0.2s0.4,0.1,0.6,0.1s0.4,0.1,0.6,0.1
			c0.6,0,1.1-0.1,1.4-0.3s0.4-0.5,0.4-1c0-0.2,0-0.4-0.1-0.6s-0.2-0.3-0.4-0.5s-0.4-0.3-0.6-0.4s-0.5-0.3-0.8-0.4s-0.6-0.3-0.8-0.5
			s-0.5-0.3-0.7-0.5s-0.3-0.4-0.4-0.6s-0.2-0.5-0.2-0.8c0-0.4,0.1-0.7,0.3-1s0.4-0.5,0.7-0.7s0.6-0.3,0.9-0.4s0.7-0.1,1.1-0.1
			c0.8,0,1.4,0.1,1.8,0.3v1.1c-0.5-0.3-1.1-0.5-1.9-0.5c-0.2,0-0.4,0-0.6,0.1s-0.4,0.1-0.6,0.2s-0.3,0.2-0.4,0.4s-0.2,0.4-0.2,0.6
			s0,0.4,0.1,0.6s0.2,0.3,0.4,0.4s0.3,0.3,0.6,0.4s0.5,0.3,0.8,0.4s0.6,0.3,0.9,0.5s0.5,0.3,0.7,0.5s0.4,0.4,0.5,0.7
			s0.2,0.5,0.2,0.8c0,0.4-0.1,0.8-0.2,1.1s-0.4,0.5-0.7,0.7s-0.6,0.3-1,0.4s-0.7,0.1-1.1,0.1c-0.1,0-0.3,0-0.5,0s-0.4-0.1-0.6-0.1
			s-0.4-0.1-0.6-0.2S138.8,100.7,138.7,100.7z"/>
		<path fill="#FFFFFF" d="M147.7,100.9c-0.2,0.1-0.5,0.2-0.9,0.2c-1.1,0-1.6-0.6-1.6-1.8v-3.6h-1V95h1v-1.5l1-0.3V95h1.5v0.8h-1.5
			v3.4c0,0.4,0.1,0.7,0.2,0.9s0.4,0.3,0.7,0.3c0.2,0,0.5-0.1,0.6-0.2V100.9z"/>
		<path fill="#FFFFFF" d="M151.4,101.1c-0.9,0-1.6-0.3-2.1-0.8s-0.8-1.3-0.8-2.2c0-1,0.3-1.8,0.8-2.4s1.3-0.8,2.2-0.8
			s1.6,0.3,2.1,0.8s0.8,1.3,0.8,2.3s-0.3,1.7-0.8,2.3S152.3,101.1,151.4,101.1z M151.5,95.7c-0.6,0-1.1,0.2-1.5,0.6s-0.5,1-0.5,1.7
			s0.2,1.3,0.5,1.7s0.8,0.6,1.5,0.6c0.6,0,1.1-0.2,1.4-0.6s0.5-1,0.5-1.7c0-0.8-0.2-1.3-0.5-1.7S152.1,95.7,151.5,95.7z"/>
		<path fill="#FFFFFF" d="M159,96c-0.2-0.1-0.4-0.2-0.7-0.2c-0.4,0-0.8,0.2-1,0.6s-0.4,0.9-0.4,1.6v3.1h-1v-6h1v1.2l0,0
			c0.1-0.4,0.3-0.8,0.6-1s0.6-0.4,0.9-0.4c0.2,0,0.4,0,0.6,0.1L159,96L159,96z"/>
		<path fill="#FFFFFF" d="M164.8,98.2h-4.2c0,0.7,0.2,1.2,0.5,1.5s0.8,0.5,1.4,0.5c0.7,0,1.3-0.2,1.9-0.7v0.9
			c-0.5,0.4-1.2,0.6-2.1,0.6c-0.8,0-1.5-0.3-2-0.8s-0.7-1.3-0.7-2.3c0-0.9,0.3-1.7,0.8-2.3s1.2-0.9,2-0.9s1.4,0.3,1.8,0.8
			s0.6,1.2,0.6,2.1V98.2z M163.8,97.4c0-0.6-0.1-1-0.4-1.3s-0.6-0.5-1.1-0.5s-0.8,0.2-1.2,0.5s-0.5,0.7-0.6,1.3H163.8z"/>
	</g>
</g>
<g display="none">
	<g display="inline">
		<path fill="#020202" d="M169.7,115.7H10.3c-5.7,0-10.3-4.6-10.3-10.3V74.6c0-5.7,4.6-10.3,10.3-10.3h159.4
			c5.7,0,10.3,4.6,10.3,10.3v30.9C180,111.1,175.4,115.7,169.7,115.7z"/>
		<g>
			
				<linearGradient id="SVGID_1_" gradientUnits="userSpaceOnUse" x1="79.8158" y1="66.2896" x2="72.7982" y2="52.5168" gradientTransform="matrix(0.4286 0 0 0.4286 0 64.2806)">
				<stop  offset="0" style="stop-color:#FCD08F"/>
				<stop  offset="1" style="stop-color:#F79673"/>
			</linearGradient>
			<path fill="url(#SVGID_1_)" d="M31.8,93.9c2.8-1.5,5-2.7,5.2-2.8c0.6-0.3,1.2-1.1,0-1.8c-0.4-0.2-2.5-1.4-5.2-2.8l-3.7,3.7
				L31.8,93.9z"/>
			
				<linearGradient id="SVGID_2_" gradientUnits="userSpaceOnUse" x1="69.8768" y1="64.2803" x2="43.157" y2="92.9337" gradientTransform="matrix(0.4286 0 0 0.4286 0 64.2806)">
				<stop  offset="0" style="stop-color:#E74047"/>
				<stop  offset="1" style="stop-color:#7F50A0"/>
			</linearGradient>
			<path fill="url(#SVGID_2_)" d="M28.2,90.2l-11.8,12c0.3,0,0.6,0,0.9-0.3c0.8-0.4,9-4.9,14.6-8L28.2,90.2z"/>
			
				<linearGradient id="SVGID_3_" gradientUnits="userSpaceOnUse" x1="69.8561" y1="56.3865" x2="42.7124" y2="28.2783" gradientTransform="matrix(0.4286 0 0 0.4286 0 64.2806)">
				<stop  offset="0" style="stop-color:#E6FFAB"/>
				<stop  offset="1" style="stop-color:#47BEBC"/>
			</linearGradient>
			<path fill="url(#SVGID_3_)" d="M28.2,90.2l3.7-3.7c0,0-13.8-7.5-14.6-8c-0.3-0.2-0.6-0.2-1-0.2L28.2,90.2z"/>
			
				<linearGradient id="SVGID_4_" gradientUnits="userSpaceOnUse" x1="50.8633" y1="88.2394" x2="50.8633" y2="32.7802" gradientTransform="matrix(0.4286 0 0 0.4286 0 64.2806)">
				<stop  offset="0" style="stop-color:#84E9DB"/>
				<stop  offset="1" style="stop-color:#197491"/>
			</linearGradient>
			<path fill="url(#SVGID_4_)" d="M28.2,90.2L16.3,78.3c-0.5,0.1-0.9,0.5-0.9,1.4c0,1.4,0,19.8,0,21c0,0.8,0.3,1.4,0.9,1.4
				L28.2,90.2z"/>
		</g>
	</g>
	<g display="inline">
		<g>
			<path fill="#F9F9F9" d="M127.9,101.8c-0.6,0-1.2-0.1-1.7-0.3s-0.9-0.6-1.3-1.1h-0.1c0.1,0.6,0.1,1.1,0.1,1.6v4h-1.5V92h1.2
				l0.2,1.3h0.1c0.4-0.5,0.8-0.9,1.3-1.2c0.5-0.3,1.1-0.3,1.7-0.3c1.3,0,2.3,0.4,3,1.3s1,2.1,1,3.7s-0.3,2.8-1.1,3.7
				C130.2,101.4,129.2,101.8,127.9,101.8z M127.7,93c-1,0-1.7,0.3-2.1,0.8c-0.4,0.6-0.7,1.4-0.7,2.6v0.3c0,1.4,0.2,2.4,0.7,2.9
				c0.5,0.6,1.2,0.9,2.2,0.9c0.9,0,1.5-0.3,2-1s0.7-1.6,0.7-2.8c0-1.2-0.3-2.1-0.7-2.8C129.3,93.3,128.6,93,127.7,93z"/>
			<path fill="#F9F9F9" d="M135.4,101.7h-1.5V87.9h1.5V101.7z"/>
			<path fill="#F9F9F9" d="M143.8,101.7l-0.3-1.4h-0.1c-0.5,0.6-1,1-1.5,1.2s-1.1,0.3-1.8,0.3c-0.9,0-1.7-0.3-2.3-0.7
				c-0.6-0.5-0.8-1.2-0.8-2.1c0-2,1.6-3,4.7-3.1h1.6v-0.6c0-0.8-0.2-1.3-0.5-1.7c-0.3-0.3-0.9-0.6-1.6-0.6c-0.8,0-1.7,0.3-2.7,0.7
				l-0.5-1.1c0.5-0.3,1-0.5,1.6-0.6s1.2-0.2,1.7-0.2c1.2,0,2,0.3,2.6,0.8s0.9,1.3,0.9,2.5v6.6L143.8,101.7L143.8,101.7z
				 M140.5,100.6c0.9,0,1.6-0.3,2.1-0.8s0.8-1.2,0.8-2.1v-0.9h-1.5c-1.2,0-2,0.2-2.5,0.6c-0.5,0.3-0.8,0.8-0.8,1.5
				c0,0.5,0.2,0.9,0.5,1.2C139.5,100.5,139.9,100.6,140.5,100.6z"/>
			<path fill="#F9F9F9" d="M145.8,92h1.6l2.1,5.5c0.5,1.2,0.8,2.2,0.9,2.7h0.1c0.1-0.3,0.3-0.8,0.5-1.5c0.3-0.7,1-3,2.4-6.7h1.6
				l-4.2,11.1c-0.4,1.1-0.9,1.9-1.5,2.3c-0.6,0.5-1.2,0.7-2,0.7c-0.4,0-0.9,0-1.3-0.2v-1.2c0.3,0.1,0.7,0.1,1.1,0.1
				c1,0,1.7-0.6,2.1-1.7l0.6-1.4L145.8,92z"/>
		</g>
		<g>
			<path fill="#F9F9F9" d="M100.7,92.9c0.5,0.4,1.5,1.2,1.5,2.7s-0.9,2.2-1.7,2.9c-0.3,0.3-0.6,0.6-0.6,1s0.3,0.7,0.5,0.9l0.7,0.6
				c0.9,0.8,1.7,1.5,1.7,2.8c0,1.9-1.8,3.8-5.3,3.8c-3,0-4.4-1.4-4.4-2.9c0-0.7,0.3-1.8,1.5-2.5c1.2-0.8,3-0.9,3.9-0.9
				c-0.3-0.4-0.6-0.8-0.6-1.4c0-0.3,0.1-0.6,0.2-0.8c-0.2,0-0.4,0-0.6,0c-2.1,0-3.4-1.6-3.4-3.2c0-0.9,0.4-2,1.3-2.7
				c1.2-0.9,2.5-1.1,3.6-1.1h4.2l-1.3,0.7L100.7,92.9L100.7,92.9z M99.3,101.9c-0.2,0-0.3,0-0.5,0s-1.3,0-2.1,0.3
				c-0.4,0.2-1.8,0.6-1.8,2.1s1.4,2.5,3.6,2.5c1.9,0,3-0.9,3-2.2C101.5,103.5,100.8,103,99.3,101.9z M99.9,98
				c0.5-0.5,0.5-1.1,0.5-1.5c0-1.5-0.9-3.7-2.6-3.7c-0.5,0-1.1,0.3-1.4,0.7C96,93.9,96,94.5,96,95c0,1.4,0.8,3.6,2.5,3.6
				C99,98.6,99.6,98.4,99.9,98z"/>
			<path fill="#F9F9F9" d="M87.9,101.5c-3.2,0-4.9-2.5-4.9-4.8c0-2.7,2.2-4.9,5.2-4.9s4.8,2.3,4.8,4.8
				C93.1,99,91.2,101.5,87.9,101.5z M90.5,99.9c0.5-0.6,0.6-1.5,0.6-2.2c0-1.8-0.9-5.2-3.3-5.2c-0.7,0-1.3,0.3-1.8,0.7
				c-0.8,0.7-0.9,1.6-0.9,2.5c0,2,1,5.3,3.4,5.3C89.2,100.9,90,100.5,90.5,99.9z"/>
			<path fill="#F9F9F9" d="M77,101.5c-3.2,0-4.9-2.5-4.9-4.8c0-2.7,2.2-4.9,5.2-4.9s4.8,2.3,4.8,4.8C82.1,99,80.3,101.5,77,101.5z
				 M79.5,99.9c0.5-0.6,0.6-1.5,0.6-2.2c0-1.8-0.9-5.2-3.3-5.2c-0.7,0-1.3,0.3-1.8,0.7c-0.8,0.7-0.9,1.6-0.9,2.5c0,2,1,5.3,3.4,5.3
				C78.2,100.9,79,100.5,79.5,99.9z"/>
			<path fill="#F9F9F9" d="M70.5,101.2l-2.9,0.7c-1.2,0.2-2.2,0.3-3.3,0.3c-5.6,0-7.8-4.1-7.8-7.4c0-3.9,3-7.6,8.2-7.6
				c1.1,0,2.1,0.2,3.1,0.4c1.5,0.4,2.2,0.9,2.7,1.2l-1.7,1.6l-0.7,0.2l0.5-0.8c-0.7-0.7-2-1.9-4.4-1.9c-3.2,0-5.7,2.4-5.7,6
				c0,3.8,2.8,7.4,7.2,7.4c1.3,0,2-0.3,2.6-0.5v-3.3l-3.1,0.2l1.6-0.9h4.3l-0.5,0.5c-0.1,0.1-0.2,0.2-0.2,0.3c0,0.2,0,0.8,0,1
				C70.5,98.8,70.5,101.2,70.5,101.2z"/>
			<path fill="#F9F9F9" d="M107.1,100.6c-0.7,0-0.8-0.2-0.8-1v-0.2V88.2v-0.1c0.1-0.7,0.3-0.8,0.9-1.2h-2.9l-1.5,0.7h1.5l0,0l0,0
				v11.9v0.7c0,0.4-0.1,0.5-0.6,1.1h3.6l0.8-0.4C107.9,100.7,107.5,100.7,107.1,100.6z"/>
			<path fill="#F9F9F9" d="M115.5,100.8c-0.2,0.1-0.4,0.3-0.7,0.3c-0.7,0.3-1.4,0.4-2,0.4s-1.7,0-2.7-0.8c-1.4-1-2.1-2.7-2.1-4.3
				c0-3.1,2.5-4.7,4.6-4.7c0.7,0,1.5,0.2,2.1,0.6c1,0.7,1.3,1.5,1.4,2l-4.8,1.9l-1.5,0.1c0.5,2.6,2.2,4.1,4.2,4.1
				c1,0,1.8-0.3,2.5-0.7L115.5,100.8z M113.6,94.8c0.4-0.1,0.6-0.3,0.6-0.6c0-0.8-0.9-1.8-2-1.8c-0.8,0-2.3,0.6-2.3,2.8
				c0,0.3,0,0.7,0,1.1L113.6,94.8z"/>
			<g>
				<path fill="#F9F9F9" d="M117.4,92v1.3h-0.2V92h-0.4v-0.1h1V92H117.4z"/>
				<path fill="#F9F9F9" d="M119.2,93.3V92l0,0l-0.4,1.3h-0.1l-0.4-1.3l0,0v1.3h-0.1v-1.5h0.3l0.4,1.2l0,0l0.4-1.2h0.3v1.5H119.2z"
					/>
			</g>
		</g>
	</g>
	<g display="inline">
		<path fill="#FFFFFF" d="M62.6,81.3c-0.1,0.1-0.2,0.2-0.3,0.3c-0.1,0.1-0.3,0.2-0.5,0.3s-0.5,0.2-0.7,0.2c-0.3,0-0.6,0.1-1,0.1
			s-0.8-0.1-1.2-0.2s-0.6-0.3-0.9-0.6c-0.3-0.3-0.4-0.6-0.6-1c-0.1-0.4-0.2-0.9-0.2-1.3v-0.4c0-0.5,0.1-0.9,0.2-1.3
			c0.1-0.4,0.3-0.7,0.6-1s0.6-0.5,0.9-0.6c0.3-0.1,0.7-0.2,1.2-0.2s0.8,0,1.1,0.2c0.3,0.1,0.6,0.3,0.8,0.4c0.2,0.2,0.4,0.4,0.5,0.7
			c0.1,0.3,0.2,0.6,0.2,0.9h-1.3c0-0.2-0.1-0.3-0.1-0.4s-0.1-0.3-0.3-0.3c-0.1-0.1-0.2-0.2-0.4-0.2c-0.1,0-0.3-0.1-0.5-0.1
			c-0.5,0-0.8,0.2-1.1,0.5s-0.4,0.9-0.4,1.5v0.4c0,0.7,0.1,1.2,0.4,1.5c0.3,0.3,0.6,0.5,1.2,0.5c0.2,0,0.3,0,0.4,0
			c0.1,0,0.2,0,0.3-0.1c0.1,0,0.2-0.1,0.2-0.1l0.1-0.1v-1.1H60v-1h2.6v2.6l0,0V81.3z"/>
		<path fill="#FFFFFF" d="M67.7,79.3H65V81h3.1v1.1h-4.5v-6.5h4.5v1.1H65v1.5h2.7V79.3z"/>
		<path fill="#FFFFFF" d="M74.1,76.7H72v5.4h-1.4v-5.4h-2v-1.1H74L74.1,76.7L74.1,76.7z"/>
		<path fill="#FFFFFF" d="M78.4,82.1H77v-6.5h1.4V82.1z"/>
		<path fill="#FFFFFF" d="M84.6,76.7h-2.1v5.4h-1.4v-5.4h-2v-1.1h5.4L84.6,76.7L84.6,76.7z"/>
		<path fill="#FFFFFF" d="M92.9,79c0,0.5-0.1,0.9-0.2,1.3s-0.3,0.7-0.6,1s-0.6,0.5-0.9,0.6s-0.7,0.2-1.2,0.2s-0.8-0.1-1.2-0.2
			s-0.6-0.3-0.9-0.6c-0.3-0.3-0.4-0.6-0.6-1c-0.1-0.4-0.2-0.9-0.2-1.3v-0.3c0-0.5,0.1-0.9,0.2-1.3s0.3-0.7,0.6-1
			c0.3-0.3,0.6-0.5,0.9-0.6s0.7-0.2,1.2-0.2s0.8,0.1,1.2,0.2s0.6,0.3,0.9,0.6c0.3,0.3,0.4,0.6,0.6,1s0.2,0.9,0.2,1.3V79z M91.5,78.7
			c0-0.7-0.1-1.2-0.4-1.5s-0.6-0.5-1.1-0.5s-0.8,0.2-1.1,0.5c-0.3,0.3-0.4,0.9-0.4,1.5V79c0,0.3,0,0.6,0.1,0.9s0.2,0.5,0.3,0.6
			c0.1,0.2,0.3,0.3,0.5,0.4S89.8,81,90,81c0.5,0,0.8-0.2,1.1-0.6c0.3-0.3,0.4-0.9,0.4-1.5V78.7z"/>
		<path fill="#FFFFFF" d="M99.3,82.1h-1.4l-2.7-4.3v4.3h-1.4v-6.5h1.4l2.7,4.3v-4.3h1.4V82.1z"/>
	</g>
</g>
<g display="none">
	<path display="inline" fill="#020202" d="M169.7,115.7H10.3c-5.7,0-10.3-4.6-10.3-10.3V74.6c0-5.7,4.6-10.3,10.3-10.3h159.4
		c5.7,0,10.3,4.6,10.3,10.3v30.9C180,111.1,175.4,115.7,169.7,115.7z"/>
	<g display="inline">
		<g>
			<path fill="#FFFFFF" d="M34.2,89.1c0-3.5,2.8-5.1,3-5.2c-1.6-2.4-4.2-2.7-5-2.7C30,81,28,82.5,26.9,82.5s-2.7-1.2-4.5-1.2
				c-2.3,0-4.5,1.4-5.6,3.4c-2.4,4.2-0.6,10.4,1.7,13.8c1.2,1.7,2.5,3.5,4.3,3.5c1.8-0.1,2.4-1.1,4.5-1.1s2.7,1.1,4.5,1.1
				c1.9,0,3-1.7,4.2-3.3c1.3-1.9,1.9-3.8,1.9-3.9C37.8,94.7,34.2,93.3,34.2,89.1z"/>
			<path fill="#FFFFFF" d="M30.8,79c0.9-1.2,1.6-2.8,1.4-4.4c-1.4,0-3,0.9-4,2.1c-0.9,1-1.6,2.7-1.5,4.2C28.2,81,29.8,80.1,30.8,79z
				"/>
		</g>
	</g>
	<g display="inline">
		<g>
			<path fill="#FFFFFF" d="M73.8,102.5h-2.4l-1.3-4.2h-4.6l-1.3,4.2h-2.4l4.6-14.2h2.8L73.8,102.5z M69.7,96.6l-1.2-3.7
				c-0.1-0.4-0.4-1.3-0.7-2.7l0,0c-0.1,0.6-0.4,1.5-0.7,2.7l-1.2,3.7H69.7z"/>
			<path fill="#FFFFFF" d="M85.6,97.2c0,1.8-0.5,3.1-1.4,4.2c-0.9,0.9-1.9,1.4-3.1,1.4c-1.4,0-2.3-0.5-2.9-1.5l0,0v5.4h-2.3V95.6
				c0-1.1,0-2.2-0.1-3.4h2l0.1,1.6l0,0c0.8-1.2,1.9-1.8,3.5-1.8c1.2,0,2.2,0.5,3,1.4C85.2,94.4,85.6,95.7,85.6,97.2z M83.3,97.3
				c0-1-0.2-1.8-0.7-2.5s-1.2-1-2-1c-0.6,0-1.1,0.2-1.5,0.6c-0.5,0.4-0.8,0.9-0.9,1.5c-0.1,0.3-0.1,0.5-0.1,0.7v1.7
				c0,0.7,0.2,1.4,0.7,1.9s1.1,0.8,1.8,0.8c0.9,0,1.5-0.3,2-1C83.1,99.3,83.3,98.4,83.3,97.3z"/>
			<path fill="#FFFFFF" d="M97.5,97.2c0,1.8-0.5,3.1-1.4,4.2c-0.9,0.9-1.9,1.4-3.1,1.4c-1.4,0-2.3-0.5-2.9-1.5l0,0v5.4h-2.3V95.6
				c0-1.1,0-2.2-0.1-3.4h2l0.1,1.6l0,0c0.8-1.2,1.9-1.8,3.5-1.8c1.2,0,2.2,0.5,3,1.4C97,94.4,97.5,95.7,97.5,97.2z M95.1,97.3
				c0-1-0.2-1.8-0.7-2.5s-1.2-1-2-1c-0.6,0-1.1,0.2-1.5,0.6c-0.5,0.4-0.8,0.9-0.9,1.5c-0.1,0.3-0.1,0.5-0.1,0.7v1.7
				c0,0.7,0.2,1.4,0.7,1.9s1.1,0.8,1.8,0.8c0.9,0,1.5-0.3,2-1S95.1,98.4,95.1,97.3z"/>
			<path fill="#FFFFFF" d="M110.7,98.5c0,1.2-0.4,2.2-1.2,3c-0.9,0.8-2.2,1.2-3.9,1.2c-1.5,0-2.7-0.3-3.7-0.9l0.5-1.9
				c1,0.6,2.1,0.9,3.3,0.9c0.9,0,1.5-0.2,2-0.6s0.7-0.9,0.7-1.5s-0.2-1.1-0.6-1.5s-1-0.8-2-1.1c-2.5-0.9-3.7-2.3-3.7-4.1
				c0-1.2,0.4-2.1,1.3-2.9c0.9-0.7,2-1.1,3.5-1.1c1.3,0,2.4,0.2,3.2,0.7l-0.6,1.8c-0.8-0.4-1.7-0.6-2.7-0.6c-0.8,0-1.4,0.2-1.9,0.6
				c-0.4,0.3-0.6,0.8-0.6,1.3c0,0.6,0.2,1,0.6,1.4c0.4,0.3,1.1,0.7,2.1,1.1c1.2,0.5,2.1,1.1,2.7,1.7
				C110.4,96.7,110.7,97.5,110.7,98.5z"/>
			<path fill="#FFFFFF" d="M118.2,93.9h-2.5v5c0,1.3,0.4,1.9,1.3,1.9c0.4,0,0.7,0,1-0.1v1.7c-0.4,0.2-1,0.3-1.8,0.3
				c-0.9,0-1.6-0.3-2.1-0.8c-0.5-0.6-0.8-1.5-0.8-2.8V94h-1.5v-1.7h1.5v-1.9l2.2-0.7v2.6h2.5C118.2,92.2,118.2,93.9,118.2,93.9z"/>
			<path fill="#FFFFFF" d="M129.5,97.3c0,1.6-0.5,2.9-1.4,3.9c-0.9,1-2.2,1.5-3.8,1.5c-1.5,0-2.7-0.5-3.6-1.5s-1.3-2.3-1.3-3.8
				c0-1.6,0.5-2.9,1.4-3.9s2.1-1.5,3.7-1.5c1.5,0,2.7,0.5,3.6,1.5C129.1,94.5,129.5,95.7,129.5,97.3z M127.2,97.4
				c0-0.9-0.2-1.8-0.6-2.4c-0.5-0.8-1.2-1.2-2.1-1.2s-1.6,0.4-2.1,1.2c-0.4,0.7-0.6,1.5-0.6,2.5c0,0.9,0.2,1.8,0.6,2.4
				c0.5,0.8,1.2,1.2,2.1,1.2s1.5-0.4,2.1-1.2C126.9,99.1,127.2,98.3,127.2,97.4z"/>
			<path fill="#FFFFFF" d="M136.9,94.2c-0.2,0-0.5,0-0.7,0c-0.8,0-1.4,0.3-1.8,0.9c-0.4,0.5-0.6,1.2-0.6,2v5.4h-2.3v-7
				c0-1.2,0-2.3-0.1-3.2h2l0.1,2l0,0c0.3-0.7,0.6-1.2,1.2-1.6c0.5-0.4,1.1-0.6,1.6-0.6c0.2,0,0.4,0,0.6,0
				C136.9,92.1,136.9,94.2,136.9,94.2z"/>
			<path fill="#FFFFFF" d="M147.1,96.9c0,0.4,0,0.8-0.1,1h-6.9c0,1,0.3,1.8,1,2.3c0.6,0.5,1.3,0.7,2.2,0.7c1,0,1.9-0.2,2.8-0.5
				l0.3,1.6c-1,0.4-2.1,0.6-3.4,0.6c-1.6,0-2.8-0.5-3.7-1.4s-1.4-2.2-1.4-3.8c0-1.5,0.4-2.8,1.3-3.9c0.9-1.1,2.1-1.6,3.6-1.6
				s2.6,0.6,3.3,1.6C146.8,94.5,147.1,95.6,147.1,96.9z M144.9,96.3c0-0.7-0.1-1.2-0.4-1.8c-0.4-0.6-1-0.9-1.8-0.9
				c-0.7,0-1.4,0.3-1.8,0.9c-0.4,0.5-0.6,1.1-0.7,1.8H144.9L144.9,96.3z"/>
		</g>
		<g>
			<g>
				<path fill="#FFFFFF" d="M69,79.5c0,1.2-0.4,2.2-1.1,2.8c-0.7,0.6-1.7,0.9-3,0.9c-0.6,0-1.2,0-1.6-0.1v-6.9
					c0.6-0.1,1.2-0.1,1.9-0.1c1.2,0,2.1,0.3,2.8,0.8S69,78.4,69,79.5z M67.8,79.5c0-0.8-0.2-1.5-0.6-1.9c-0.5-0.4-1.2-0.6-2-0.6
					c-0.3,0-0.6,0-0.9,0.1v5.2c0.1,0,0.4,0,0.8,0c0.9,0,1.5-0.3,2-0.7C67.5,81.2,67.8,80.4,67.8,79.5z"/>
				<path fill="#FFFFFF" d="M75.2,80.6c0,0.8-0.2,1.4-0.6,1.9c-0.5,0.5-1.1,0.8-1.8,0.8c-0.7,0-1.3-0.3-1.8-0.7
					c-0.4-0.5-0.6-1.1-0.6-1.8c0-0.8,0.2-1.4,0.7-1.9s1.1-0.7,1.8-0.7c0.7,0,1.3,0.3,1.8,0.7C75,79.2,75.2,79.8,75.2,80.6z
					 M74.1,80.7c0-0.5-0.1-0.9-0.3-1.2c-0.2-0.4-0.6-0.6-1-0.6c-0.5,0-0.8,0.2-1,0.6c-0.2,0.3-0.3,0.7-0.3,1.2s0.1,0.9,0.3,1.2
					c0.3,0.4,0.6,0.6,1,0.6s0.8-0.2,1-0.6C73.9,81.5,74.1,81.1,74.1,80.7z"/>
				<path fill="#FFFFFF" d="M83.6,78.1L82,83.2h-1L80.4,81c-0.2-0.6-0.3-1.1-0.4-1.6l0,0c-0.1,0.6-0.2,1.1-0.4,1.6l-0.7,2.2h-1
					l-1.5-5.1h1.2l0.6,2.4c0.1,0.6,0.3,1.1,0.3,1.6l0,0c0.1-0.4,0.2-0.9,0.4-1.6l0.7-2.4h0.9l0.7,2.4c0.2,0.6,0.3,1.1,0.4,1.7l0,0
					c0.1-0.5,0.2-1.1,0.3-1.7l0.6-2.4H83.6L83.6,78.1z"/>
				<path fill="#FFFFFF" d="M89.4,83.2h-1.2v-2.9c0-0.9-0.3-1.3-1-1.3c-0.3,0-0.6,0.1-0.8,0.4c-0.2,0.3-0.3,0.5-0.3,0.9v3H85v-3.6
					c0-0.4,0-0.9,0-1.5h1V79l0,0c0.1-0.3,0.3-0.4,0.6-0.6c0.3-0.2,0.6-0.3,1-0.3c0.5,0,0.9,0.2,1.2,0.5c0.4,0.4,0.6,0.9,0.6,1.7
					C89.4,80.3,89.4,83.2,89.4,83.2z"/>
				<path fill="#FFFFFF" d="M92.5,83.2h-1.1v-7.4h1.1V83.2z"/>
				<path fill="#FFFFFF" d="M99.1,80.6c0,0.8-0.2,1.4-0.6,1.9c-0.5,0.5-1.1,0.8-1.8,0.8c-0.7,0-1.3-0.3-1.8-0.7
					c-0.4-0.5-0.6-1.1-0.6-1.8c0-0.8,0.2-1.4,0.7-1.9s1.1-0.7,1.8-0.7c0.7,0,1.3,0.3,1.8,0.7C98.9,79.2,99.1,79.8,99.1,80.6z
					 M97.9,80.7c0-0.5-0.1-0.9-0.3-1.2c-0.2-0.4-0.6-0.6-1-0.6c-0.5,0-0.8,0.2-1,0.6c-0.2,0.3-0.3,0.7-0.3,1.2s0.1,0.9,0.3,1.2
					c0.3,0.4,0.6,0.6,1,0.6s0.8-0.2,1-0.6C97.8,81.5,97.9,81.1,97.9,80.7z"/>
				<path fill="#FFFFFF" d="M104.5,83.2h-1l-0.1-0.6l0,0c-0.3,0.5-0.8,0.7-1.5,0.7c-0.5,0-0.9-0.2-1.2-0.5c-0.3-0.3-0.4-0.6-0.4-1
					c0-0.6,0.3-1.1,0.8-1.4s1.2-0.5,2.2-0.5v-0.1c0-0.6-0.3-1-1-1c-0.5,0-0.9,0.1-1.3,0.4l-0.2-0.7c0.5-0.3,1-0.4,1.7-0.4
					c1.3,0,2,0.7,2,2.1V82C104.4,82.5,104.5,82.9,104.5,83.2z M103.4,81.4v-0.8c-1.2,0-1.8,0.3-1.8,1c0,0.3,0.1,0.5,0.2,0.6
					s0.3,0.2,0.6,0.2c0.3,0,0.5-0.1,0.7-0.2c0.2-0.2,0.3-0.3,0.4-0.6C103.4,81.6,103.4,81.5,103.4,81.4z"/>
				<path fill="#FFFFFF" d="M110.9,83.2h-1v-0.8l0,0c-0.3,0.6-0.9,0.9-1.6,0.9c-0.6,0-1.1-0.3-1.5-0.7c-0.4-0.5-0.6-1.1-0.6-1.8
					c0-0.8,0.2-1.5,0.6-2s0.9-0.7,1.5-0.7c0.7,0,1.2,0.2,1.4,0.7l0,0v-2.9h1.1v6C110.9,82.3,110.9,82.8,110.9,83.2z M109.8,81v-0.9
					c0-0.1,0-0.3,0-0.3c0-0.3-0.2-0.5-0.4-0.7c-0.2-0.2-0.5-0.3-0.7-0.3c-0.4,0-0.7,0.2-1,0.5s-0.3,0.8-0.3,1.3s0.1,0.9,0.3,1.2
					c0.3,0.3,0.6,0.5,1,0.5s0.6-0.1,0.9-0.4C109.6,81.7,109.8,81.4,109.8,81z"/>
				<path fill="#FFFFFF" d="M120.5,80.6c0,0.8-0.2,1.4-0.6,1.9c-0.5,0.5-1.1,0.8-1.8,0.8c-0.7,0-1.3-0.3-1.8-0.7
					c-0.4-0.5-0.6-1.1-0.6-1.8c0-0.8,0.2-1.4,0.7-1.9s1.1-0.7,1.8-0.7c0.7,0,1.3,0.3,1.8,0.7C120.3,79.2,120.5,79.8,120.5,80.6z
					 M119.3,80.7c0-0.5-0.1-0.9-0.3-1.2c-0.3-0.4-0.6-0.6-1-0.6s-0.8,0.2-1,0.6c-0.2,0.3-0.3,0.7-0.3,1.2s0.1,0.9,0.3,1.2
					c0.3,0.4,0.6,0.6,1,0.6s0.8-0.2,1-0.6C119.2,81.5,119.3,81.1,119.3,80.7z"/>
				<path fill="#FFFFFF" d="M126.5,83.2h-1.1v-2.9c0-0.9-0.3-1.3-1-1.3c-0.3,0-0.6,0.1-0.8,0.4c-0.2,0.3-0.3,0.5-0.3,0.9v3h-1.1
					v-3.6c0-0.4,0-0.9,0-1.5h1V79l0,0c0.1-0.3,0.3-0.4,0.6-0.6c0.3-0.2,0.6-0.3,1-0.3c0.5,0,0.9,0.2,1.2,0.5
					c0.4,0.4,0.6,0.9,0.6,1.7L126.5,83.2L126.5,83.2z"/>
				<path fill="#FFFFFF" d="M134.1,79h-1.2v2.4c0,0.6,0.2,0.9,0.6,0.9c0.2,0,0.4,0,0.5,0v0.9c-0.2,0.1-0.5,0.1-0.9,0.1
					s-0.8-0.1-1-0.4c-0.3-0.3-0.4-0.7-0.4-1.4V79H131v-0.9h0.7v-0.9l1.1-0.3v1.2h1.2L134.1,79L134.1,79z"/>
				<path fill="#FFFFFF" d="M140,83.2h-1.1v-2.9c0-0.9-0.3-1.4-1-1.4c-0.5,0-0.9,0.3-1.1,0.8c0,0.1,0,0.3,0,0.4v3h-1.1v-7.3h1.1v3
					l0,0c0.3-0.6,0.9-0.8,1.5-0.8c0.5,0,0.9,0.2,1.2,0.5c0.4,0.4,0.6,0.9,0.6,1.7C140,80.2,140,83.2,140,83.2z"/>
				<path fill="#FFFFFF" d="M146.1,80.4c0,0.2,0,0.4,0,0.5h-3.3c0,0.5,0.2,0.9,0.5,1.2c0.3,0.2,0.6,0.3,1.1,0.3s0.9-0.1,1.4-0.3
					l0.2,0.8c-0.5,0.2-1,0.3-1.7,0.3c-0.8,0-1.4-0.2-1.8-0.7c-0.4-0.5-0.7-1.1-0.7-1.8c0-0.8,0.2-1.4,0.6-1.9c0.4-0.6,1-0.8,1.8-0.8
					s1.3,0.3,1.6,0.8C146,79.2,146.1,79.8,146.1,80.4z M145,80.1c0-0.3-0.1-0.6-0.2-0.9c-0.2-0.3-0.5-0.5-0.9-0.5s-0.6,0.2-0.9,0.5
					c-0.2,0.3-0.3,0.5-0.3,0.9C142.7,80.1,145,80.1,145,80.1z"/>
			</g>
		</g>
	</g>
</g>
</svg>
