<?xml version="1.0" encoding="utf-8"?>
<!-- Generator: Adobe Illustrator 19.2.1, SVG Export Plug-In . SVG Version: 6.00 Build 0)  -->
<svg version="1.1" id="Layer_1" xmlns="http://www.w3.org/2000/svg" xmlns:xlink="http://www.w3.org/1999/xlink" x="0px" y="0px"
	 viewBox="0 0 420 120" style="enable-background:new 0 0 420 120;" xml:space="preserve">
<style type="text/css">
	.st0{display:none;}
	.st1{display:inline;fill:#020202;}
	.st2{display:inline;}
	.st3{fill:#FFFFFF;}
	.st4{display:inline;fill:none;}
	.st5{display:inline;fill:#FFFFFF;}
	.st6{font-family:'SegoeWP';}
	.st7{font-size:24px;}
	.st8{font-size:28px;}
	.st9{fill:#020202;}
	.st10{fill:#5BC8F3;}
	.st11{clip-path:url(#SVGID_2_);fill:url(#SVGID_3_);}
	.st12{clip-path:url(#SVGID_5_);fill:url(#SVGID_6_);}
	.st13{clip-path:url(#SVGID_8_);fill:url(#SVGID_9_);}
</style>
<g class="st0">
	<path class="st1" d="M396,120H24c-13.3,0-24-10.7-24-24V24C0,10.7,10.7,0,24,0h372c13.3,0,24,10.7,24,24v72
		C420,109.3,409.3,120,396,120z"/>
	<g class="st2">
		<polygon class="st3" points="60,59 88,59 88,34 60,37.5 		"/>
		<polygon class="st3" points="58,59 58,37.8 36,40.7 36,59 		"/>
		<polygon class="st3" points="60,61 60,82.5 88,86 88,61 		"/>
		<polygon class="st3" points="58,61 36,61 36,79.3 58,82.2 		"/>
	</g>
	<rect x="114.3" y="34.3" class="st4" width="274" height="60.3"/>
	<text transform="matrix(1 0 0 1 114.3329 52.08)" class="st5 st6 st7">Download from</text>
	<text transform="matrix(1 0 0 1 114.3329 85.68)" class="st5 st6 st8">Windows Phone Store</text>
</g>
<g>
	<path class="st9" d="M396,120H24c-13.3,0-24-10.7-24-24V24C0,10.7,10.7,0,24,0h372c13.3,0,24,10.7,24,24v72
		C420,109.3,409.3,120,396,120z"/>
</g>
<g class="st0">
	<path class="st1" d="M396,120H24c-13.3,0-24-10.7-24-24V24C0,10.7,10.7,0,24,0h372c13.3,0,24,10.7,24,24v72
		C420,109.3,409.3,120,396,120z"/>
	<g class="st2">
		<g>
			<path class="st3" d="M79.8,58c-0.1-8.1,6.6-12,6.9-12.2c-3.8-5.5-9.7-6.3-11.7-6.3c-4.9-0.5-9.7,2.9-12.2,2.9
				c-2.6,0-6.4-2.9-10.6-2.8c-5.4,0.1-10.4,3.2-13.1,8c-5.7,9.8-1.4,24.3,4,32.2c2.7,3.9,5.9,8.2,10.1,8.1c4.1-0.2,5.6-2.6,10.5-2.6
				s6.3,2.6,10.5,2.5c4.4-0.1,7.1-3.9,9.7-7.8c3.1-4.5,4.4-8.9,4.5-9.1C88.3,70.9,79.9,67.7,79.8,58z"/>
			<path class="st3" d="M71.8,34.3c2.2-2.7,3.7-6.5,3.3-10.2c-3.2,0.1-7.1,2.2-9.4,4.9c-2,2.4-3.8,6.2-3.4,9.9
				C65.9,39,69.5,37,71.8,34.3z"/>
		</g>
	</g>
	<g class="st2">
		<g>
			<path class="st3" d="M172.3,89.2h-5.7l-3.1-9.8h-10.8l-3,9.8h-5.5L155,56h6.6L172.3,89.2z M162.6,75.3l-2.8-8.7
				c-0.3-0.9-0.9-3-1.7-6.3H158c-0.3,1.4-0.9,3.5-1.6,6.3l-2.8,8.7H162.6z"/>
			<path class="st3" d="M199.8,76.9c0,4.1-1.1,7.3-3.3,9.7c-2,2.1-4.4,3.2-7.3,3.2c-3.2,0-5.4-1.1-6.8-3.4h-0.1V99H177V73.1
				c0-2.6-0.1-5.2-0.2-7.9h4.7l0.3,3.8h0.1c1.8-2.9,4.5-4.3,8.1-4.3c2.8,0,5.2,1.1,7.1,3.3C198.9,70.3,199.8,73.3,199.8,76.9z
				 M194.4,77.1c0-2.3-0.5-4.3-1.6-5.8c-1.2-1.6-2.7-2.4-4.6-2.4c-1.3,0-2.5,0.4-3.6,1.3s-1.8,2-2.1,3.4c-0.2,0.7-0.2,1.2-0.2,1.6v4
				c0,1.7,0.5,3.2,1.6,4.4c1.1,1.2,2.5,1.8,4.2,1.8c2,0,3.6-0.8,4.7-2.3C193.8,81.7,194.4,79.6,194.4,77.1z"/>
			<path class="st3" d="M227.4,76.9c0,4.1-1.1,7.3-3.3,9.7c-2,2.1-4.4,3.2-7.3,3.2c-3.2,0-5.4-1.1-6.8-3.4h-0.1V99h-5.3V73.1
				c0-2.6-0.1-5.2-0.2-7.9h4.7l0.3,3.8h0.1c1.8-2.9,4.5-4.3,8.1-4.3c2.8,0,5.2,1.1,7.1,3.3C226.4,70.3,227.4,73.3,227.4,76.9z
				 M221.9,77.1c0-2.3-0.5-4.3-1.6-5.8c-1.2-1.6-2.7-2.4-4.6-2.4c-1.3,0-2.5,0.4-3.6,1.3s-1.8,2-2.1,3.4c-0.2,0.7-0.2,1.2-0.2,1.6v4
				c0,1.7,0.5,3.2,1.6,4.4c1.1,1.2,2.5,1.8,4.2,1.8c2,0,3.6-0.8,4.7-2.3C221.4,81.7,221.9,79.6,221.9,77.1z"/>
			<path class="st3" d="M258.2,79.9c0,2.8-1,5.1-2.9,6.9c-2.2,1.9-5.2,2.9-9,2.9c-3.6,0-6.4-0.7-8.6-2.1l1.2-4.4
				c2.3,1.4,4.9,2.1,7.7,2.1c2,0,3.6-0.5,4.7-1.4c1.1-0.9,1.7-2.1,1.7-3.6c0-1.3-0.5-2.5-1.4-3.4s-2.4-1.8-4.6-2.6
				c-5.8-2.2-8.7-5.3-8.7-9.5c0-2.7,1-5,3.1-6.7c2-1.7,4.7-2.6,8.1-2.6c3,0,5.5,0.5,7.5,1.6l-1.3,4.3c-1.9-1-4-1.5-6.4-1.5
				c-1.9,0-3.3,0.5-4.4,1.4c-0.9,0.8-1.3,1.8-1.3,3c0,1.3,0.5,2.4,1.5,3.3c0.9,0.8,2.5,1.6,4.8,2.6c2.9,1.2,5,2.5,6.3,4
				C257.5,75.6,258.2,77.6,258.2,79.9z"/>
			<path class="st3" d="M275.7,69.2h-5.9v11.6c0,3,1,4.4,3.1,4.4c1,0,1.7-0.1,2.4-0.2l0.1,4c-1,0.4-2.4,0.6-4.1,0.6
				c-2.1,0-3.7-0.6-4.9-1.9c-1.2-1.3-1.8-3.4-1.8-6.5v-12h-3.5v-4h3.5v-4.4l5.2-1.6v6h5.9C275.7,65.2,275.7,69.2,275.7,69.2z"/>
			<path class="st3" d="M302.2,77c0,3.7-1.1,6.7-3.2,9.1c-2.2,2.4-5.1,3.6-8.8,3.6c-3.5,0-6.3-1.2-8.4-3.5s-3.1-5.3-3.1-8.8
				c0-3.7,1.1-6.7,3.2-9.1s5-3.5,8.7-3.5c3.5,0,6.3,1.2,8.5,3.5C301.2,70.5,302.2,73.4,302.2,77z M296.7,77.2c0-2.2-0.5-4.1-1.4-5.7
				c-1.1-1.9-2.7-2.9-4.8-2.9c-2.1,0-3.8,1-4.9,2.9c-1,1.6-1.4,3.5-1.4,5.8c0,2.2,0.5,4.1,1.4,5.7c1.2,1.9,2.8,2.9,4.8,2.9
				s3.6-1,4.8-2.9C296.2,81.3,296.7,79.4,296.7,77.2z"/>
			<path class="st3" d="M319.5,69.9c-0.5-0.1-1.1-0.1-1.7-0.1c-1.9,0-3.3,0.7-4.3,2.1c-0.9,1.2-1.3,2.8-1.3,4.7v12.6h-5.3V72.8
				c0-2.8-0.1-5.3-0.2-7.5h4.6l0.2,4.6h0.1c0.6-1.6,1.4-2.8,2.7-3.8c1.2-0.9,2.5-1.3,3.8-1.3c0.5,0,0.9,0,1.3,0.1
				C319.5,64.8,319.5,69.9,319.5,69.9z"/>
			<path class="st3" d="M343.3,76.1c0,1-0.1,1.8-0.2,2.4h-16c0.1,2.4,0.8,4.2,2.3,5.4c1.3,1.1,3.1,1.7,5.2,1.7
				c2.4,0,4.5-0.4,6.5-1.1l0.8,3.7c-2.3,1-4.9,1.5-8,1.5c-3.7,0-6.6-1.1-8.7-3.3c-2.1-2.2-3.2-5.1-3.2-8.8c0-3.6,1-6.6,3-9
				c2.1-2.6,4.9-3.8,8.4-3.8s6.1,1.3,7.8,3.8C342.6,70.6,343.3,73.1,343.3,76.1z M338.2,74.7c0-1.6-0.3-2.9-1-4.1
				c-0.9-1.5-2.3-2.2-4.2-2.2c-1.7,0-3.2,0.7-4.2,2.2c-0.9,1.2-1.4,2.5-1.6,4.1H338.2L338.2,74.7z"/>
		</g>
		<g>
			<g>
				<path class="st3" d="M160.9,35.5c0,2.9-0.9,5.1-2.6,6.6c-1.6,1.4-3.9,2.1-6.9,2.1c-1.5,0-2.8-0.1-3.8-0.2V28
					c1.4-0.2,2.9-0.3,4.5-0.3c2.9,0,5,0.6,6.5,1.9C160.1,30.9,160.9,32.9,160.9,35.5z M158.1,35.6c0-1.9-0.5-3.4-1.5-4.4
					c-1-1-2.5-1.5-4.4-1.5c-0.8,0-1.5,0.1-2.1,0.2v12.2c0.3,0,0.9,0.1,1.8,0.1c2,0,3.5-0.6,4.6-1.7S158.1,37.7,158.1,35.6z"/>
				<path class="st3" d="M175.5,38.1c0,1.8-0.5,3.3-1.5,4.5c-1.1,1.2-2.5,1.8-4.3,1.8c-1.7,0-3.1-0.6-4.1-1.7
					c-1-1.1-1.5-2.6-1.5-4.3c0-1.8,0.5-3.3,1.6-4.5s2.5-1.7,4.3-1.7c1.7,0,3.1,0.6,4.2,1.7C175,34.9,175.5,36.3,175.5,38.1z
					 M172.8,38.2c0-1.1-0.2-2-0.7-2.8c-0.5-0.9-1.3-1.4-2.3-1.4c-1.1,0-1.8,0.5-2.4,1.4c-0.5,0.8-0.7,1.7-0.7,2.8s0.2,2,0.7,2.8
					c0.6,0.9,1.4,1.4,2.4,1.4s1.8-0.5,2.3-1.4C172.5,40.2,172.8,39.3,172.8,38.2z"/>
				<path class="st3" d="M195.1,32.3l-3.7,11.8H189l-1.5-5.1c-0.4-1.3-0.7-2.5-0.9-3.8l0,0c-0.2,1.3-0.5,2.6-0.9,3.8l-1.6,5.1h-2.4
					l-3.5-11.8h2.7l1.3,5.6c0.3,1.3,0.6,2.6,0.8,3.8l0,0c0.2-1,0.5-2.2,1-3.8l1.7-5.6h2.1l1.6,5.5c0.4,1.3,0.7,2.6,0.9,3.9h0.1
					c0.2-1.2,0.4-2.5,0.8-3.9l1.4-5.5H195.1L195.1,32.3z"/>
				<path class="st3" d="M208.7,44.1H206v-6.7c0-2.1-0.8-3.1-2.4-3.1c-0.8,0-1.4,0.3-1.9,0.9c-0.5,0.6-0.7,1.2-0.7,2v7h-2.6v-8.4
					c0-1,0-2.2-0.1-3.4h2.3l0.1,1.8h0.1c0.3-0.6,0.8-1,1.4-1.4c0.7-0.4,1.5-0.7,2.4-0.7c1.1,0,2,0.4,2.7,1.1
					c0.9,0.9,1.4,2.2,1.4,3.9V44.1z"/>
				<path class="st3" d="M215.9,44.1h-2.6V26.9h2.6V44.1z"/>
				<path class="st3" d="M231.3,38.1c0,1.8-0.5,3.3-1.5,4.5c-1.1,1.2-2.5,1.8-4.3,1.8c-1.7,0-3.1-0.6-4.1-1.7
					c-1-1.1-1.5-2.6-1.5-4.3c0-1.8,0.5-3.3,1.6-4.5s2.5-1.7,4.3-1.7c1.7,0,3.1,0.6,4.2,1.7C230.8,34.9,231.3,36.3,231.3,38.1z
					 M228.5,38.2c0-1.1-0.2-2-0.7-2.8c-0.5-0.9-1.3-1.4-2.3-1.4c-1.1,0-1.9,0.5-2.4,1.4c-0.5,0.8-0.7,1.7-0.7,2.8s0.2,2,0.7,2.8
					c0.6,0.9,1.4,1.4,2.4,1.4s1.8-0.5,2.3-1.4C228.3,40.2,228.5,39.3,228.5,38.2z"/>
				<path class="st3" d="M243.9,44.1h-2.3l-0.2-1.4h-0.1c-0.8,1.1-1.9,1.6-3.4,1.6c-1.1,0-2-0.4-2.7-1.1c-0.6-0.6-0.9-1.4-0.9-2.4
					c0-1.4,0.6-2.5,1.8-3.3s2.9-1.1,5.1-1.1v-0.2c0-1.5-0.8-2.3-2.4-2.3c-1.2,0-2.2,0.3-3.1,0.9l-0.5-1.7c1.1-0.7,2.4-1,4-1
					c3.1,0,4.6,1.6,4.6,4.9v4.3C243.7,42.4,243.8,43.4,243.9,44.1z M241.2,40v-1.8c-2.9,0-4.3,0.7-4.3,2.4c0,0.6,0.2,1.1,0.5,1.4
					c0.3,0.3,0.8,0.5,1.3,0.5c0.6,0,1.1-0.2,1.6-0.5c0.5-0.4,0.8-0.8,0.9-1.4C241.2,40.4,241.2,40.2,241.2,40z"/>
				<path class="st3" d="M258.8,44.1h-2.3l-0.1-1.9h-0.1c-0.7,1.4-2,2.2-3.8,2.2c-1.4,0-2.6-0.6-3.5-1.7s-1.4-2.6-1.4-4.3
					c0-1.9,0.5-3.4,1.5-4.6c1-1.1,2.2-1.6,3.6-1.6c1.6,0,2.7,0.5,3.3,1.6l0,0V27h2.6v14C258.7,42,258.7,43.1,258.8,44.1z
					 M256.1,39.1v-2c0-0.3,0-0.6-0.1-0.8c-0.1-0.6-0.5-1.2-0.9-1.6c-0.5-0.4-1.1-0.6-1.7-0.6c-1,0-1.7,0.4-2.3,1.2s-0.8,1.8-0.8,3
					s0.3,2.1,0.8,2.8c0.6,0.8,1.3,1.2,2.3,1.2c0.9,0,1.5-0.3,2.1-1C255.8,40.7,256.1,40,256.1,39.1z"/>
				<path class="st3" d="M281.1,38.1c0,1.8-0.5,3.3-1.5,4.5c-1.1,1.2-2.5,1.8-4.3,1.8c-1.7,0-3.1-0.6-4.1-1.7
					c-1-1.1-1.5-2.6-1.5-4.3c0-1.8,0.5-3.3,1.6-4.5s2.5-1.7,4.3-1.7c1.7,0,3.1,0.6,4.2,1.7C280.6,34.9,281.1,36.3,281.1,38.1z
					 M278.4,38.2c0-1.1-0.2-2-0.7-2.8c-0.6-0.9-1.3-1.4-2.3-1.4s-1.8,0.5-2.4,1.4c-0.5,0.8-0.7,1.7-0.7,2.8s0.2,2,0.7,2.8
					c0.6,0.9,1.4,1.4,2.4,1.4s1.8-0.5,2.3-1.4C278.2,40.2,278.4,39.3,278.4,38.2z"/>
				<path class="st3" d="M295.2,44.1h-2.6v-6.7c0-2.1-0.8-3.1-2.4-3.1c-0.8,0-1.4,0.3-1.9,0.9c-0.5,0.6-0.7,1.2-0.7,2v7H285v-8.4
					c0-1,0-2.2-0.1-3.4h2.3l0.1,1.8h0.1c0.3-0.6,0.8-1,1.4-1.4c0.7-0.4,1.5-0.7,2.4-0.7c1.1,0,2,0.4,2.7,1.1
					c0.9,0.9,1.4,2.2,1.4,3.9L295.2,44.1L295.2,44.1z"/>
				<path class="st3" d="M312.8,34.3h-2.9V40c0,1.5,0.5,2.2,1.5,2.2c0.5,0,0.9,0,1.2-0.1l0.1,2c-0.5,0.2-1.2,0.3-2,0.3
					c-1,0-1.8-0.3-2.4-0.9c-0.6-0.6-0.9-1.7-0.9-3.2v-5.9h-1.7v-2h1.7v-2.2l2.6-0.8v2.9h2.9L312.8,34.3L312.8,34.3z"/>
				<path class="st3" d="M326.6,44.1H324v-6.7c0-2.1-0.8-3.2-2.4-3.2c-1.2,0-2,0.6-2.5,1.8c-0.1,0.3-0.1,0.6-0.1,0.9V44h-2.6V26.9
					h2.6V34l0,0c0.8-1.3,2-1.9,3.5-1.9c1.1,0,2,0.4,2.7,1.1c0.9,0.9,1.3,2.2,1.3,3.9C326.6,37.1,326.6,44.1,326.6,44.1z"/>
				<path class="st3" d="M340.9,37.6c0,0.5,0,0.9-0.1,1.2H333c0,1.2,0.4,2,1.1,2.7c0.7,0.5,1.5,0.8,2.6,0.8c1.2,0,2.2-0.2,3.2-0.6
					l0.4,1.8c-1.1,0.5-2.4,0.7-3.9,0.7c-1.8,0-3.3-0.5-4.3-1.6s-1.6-2.5-1.6-4.3s0.5-3.3,1.5-4.4c1-1.3,2.4-1.9,4.1-1.9
					s3,0.6,3.8,1.9C340.6,34.9,340.9,36.2,340.9,37.6z M338.4,37c0-0.8-0.2-1.4-0.5-2c-0.5-0.7-1.1-1.1-2.1-1.1
					c-0.9,0-1.5,0.4-2.1,1.1c-0.4,0.6-0.7,1.2-0.8,2C333,37,338.4,37,338.4,37z"/>
			</g>
		</g>
	</g>
</g>
<g>
	<path class="st3" d="M146.3,29.6c0,2.6-0.8,4.7-2.3,6.2c-1.8,1.8-4,2.8-6.9,2.8c-2.7,0-5-0.9-6.9-2.8c-1.9-1.9-2.8-4.2-2.8-6.9
		c0-2.8,0.9-5.1,2.8-6.9c1.9-1.9,4.2-2.8,6.9-2.8c1.3,0,2.6,0.3,3.8,0.8c1.2,0.5,2.2,1.2,2.9,2.1l-1.6,1.6c-1.2-1.5-2.9-2.2-5.1-2.2
		c-2,0-3.7,0.7-5.1,2.1c-1.4,1.4-2.2,3.2-2.2,5.4s0.7,4,2.2,5.4c1.4,1.4,3.1,2.1,5.1,2.1c2.1,0,3.8-0.7,5.2-2.1
		c0.9-0.9,1.4-2.2,1.6-3.8h-6.8v-2.2h9C146.3,28.7,146.3,29.1,146.3,29.6"/>
	<path class="st3" d="M146.3,29.6H146c0,2.5-0.7,4.5-2.2,6l0,0l0,0c-1.7,1.8-3.9,2.7-6.6,2.7c-2.6,0-4.8-0.9-6.6-2.7
		c-1.8-1.8-2.7-4-2.7-6.7c0-2.7,0.9-4.9,2.7-6.7c1.8-1.8,4-2.7,6.6-2.7c1.3,0,2.5,0.3,3.7,0.8c1.2,0.5,2.1,1.2,2.8,2l0.2-0.2
		l-0.2-0.2l-1.6,1.6l0.2,0.2l0.2-0.2c-1.3-1.5-3.1-2.3-5.3-2.3c-2,0-3.8,0.7-5.3,2.2c-1.5,1.4-2.2,3.3-2.2,5.6
		c0,2.3,0.7,4.2,2.2,5.6c1.5,1.4,3.3,2.2,5.3,2.2c2.2,0,4-0.7,5.4-2.2c1-1,1.5-2.3,1.7-4l0-0.3h-6.8v-1.6h8.7v-0.3l-0.3,0.1
		c0.1,0.5,0.1,0.9,0.1,1.4h0.6c0-0.5,0-1-0.1-1.5l0-0.3h-9.6v2.9h7.1v-0.3l-0.3,0c-0.1,1.6-0.6,2.7-1.5,3.6c-1.3,1.3-3,2-5,2
		c-1.9,0-3.5-0.7-4.9-2c-1.4-1.3-2.1-3-2.1-5.2c0-2.1,0.7-3.8,2.1-5.2c1.4-1.3,3-2,4.9-2c2.1,0,3.7,0.7,4.9,2.1l0.2,0.3l1.9-1.9
		l0.2-0.2l-0.2-0.2c-0.8-0.9-1.8-1.6-3-2.2c-1.3-0.5-2.6-0.8-4-0.8c-2.8,0-5.2,1-7.1,2.9c-1.9,1.9-2.9,4.3-2.9,7.2
		c0,2.8,1,5.2,2.9,7.2c1.9,1.9,4.3,2.9,7.1,2.9c2.9,0,5.3-1,7.1-2.9l-0.2-0.2l0.2,0.2c1.6-1.6,2.4-3.8,2.4-6.5H146.3"/>
	<polyline class="st3" points="160.6,21.8 152.1,21.8 152.1,27.7 159.8,27.7 159.8,30 152.1,30 152.1,35.9 160.6,35.9 160.6,38.2 
		149.7,38.2 149.7,19.5 160.6,19.5 160.6,21.8 	"/>
	<polyline class="st3" points="160.6,21.8 160.6,21.5 151.8,21.5 151.8,28 159.5,28 159.5,29.6 151.8,29.6 151.8,36.2 160.3,36.2 
		160.3,37.9 150,37.9 150,19.8 160.3,19.8 160.3,21.8 160.6,21.8 160.6,21.5 160.6,21.8 160.9,21.8 160.9,19.2 149.4,19.2 
		149.4,38.5 160.9,38.5 160.9,35.6 152.4,35.6 152.4,30.3 160.1,30.3 160.1,27.4 152.4,27.4 152.4,22.1 160.9,22.1 160.9,21.8 
		160.6,21.8 	"/>
	<polyline class="st3" points="170.7,38.2 168.3,38.2 168.3,21.8 163.1,21.8 163.1,19.5 176,19.5 176,21.8 170.7,21.8 170.7,38.2 	
		"/>
	<polyline class="st3" points="170.7,38.2 170.7,37.9 168.7,37.9 168.7,21.5 163.4,21.5 163.4,19.8 175.7,19.8 175.7,21.5 
		170.4,21.5 170.4,38.2 170.7,38.2 170.7,37.9 170.7,38.2 171.1,38.2 171.1,22.1 176.3,22.1 176.3,19.2 162.8,19.2 162.8,22.1 
		168,22.1 168,38.5 171.1,38.5 171.1,38.2 170.7,38.2 	"/>
	<rect x="185.2" y="19.5" class="st3" width="2.4" height="18.7"/>
	<polyline class="st3" points="185.2,38.2 185.6,38.2 185.6,19.8 187.3,19.8 187.3,37.9 185.2,37.9 185.2,38.2 185.6,38.2 
		185.2,38.2 185.2,38.5 188,38.5 188,19.2 184.9,19.2 184.9,38.5 185.2,38.5 185.2,38.2 	"/>
	<polyline class="st3" points="198.3,38.2 195.9,38.2 195.9,21.8 190.7,21.8 190.7,19.5 203.5,19.5 203.5,21.8 198.3,21.8 
		198.3,38.2 	"/>
	<polyline class="st3" points="198.3,38.2 198.3,37.9 196.2,37.9 196.2,21.5 191,21.5 191,19.8 203.2,19.8 203.2,21.5 198,21.5 
		198,38.2 198.3,38.2 198.3,37.9 198.3,38.2 198.6,38.2 198.6,22.1 203.8,22.1 203.8,19.2 190.4,19.2 190.4,22.1 195.6,22.1 
		195.6,38.5 198.6,38.5 198.6,38.2 198.3,38.2 	"/>
	<path class="st3" d="M227.8,35.8c-1.8,1.9-4.1,2.8-6.8,2.8c-2.7,0-5-0.9-6.8-2.8c-1.8-1.9-2.8-4.2-2.8-6.9s0.9-5,2.8-6.9
		c1.8-1.9,4.1-2.8,6.8-2.8c2.7,0,5,0.9,6.8,2.8c1.8,1.9,2.8,4.2,2.8,6.9C230.5,31.6,229.6,33.9,227.8,35.8 M215.9,34.2
		c1.4,1.4,3.1,2.1,5.1,2.1c2,0,3.7-0.7,5.1-2.1c1.4-1.4,2.1-3.2,2.1-5.4s-0.7-4-2.1-5.4c-1.4-1.4-3.1-2.1-5.1-2.1
		c-2,0-3.7,0.7-5.1,2.1c-1.4,1.4-2.1,3.2-2.1,5.4S214.5,32.8,215.9,34.2z"/>
	<path class="st3" d="M227.8,35.8l-0.2-0.2c-1.8,1.8-4,2.7-6.6,2.7c-2.7,0-4.8-0.9-6.6-2.7l0,0l0,0c-1.8-1.8-2.7-4-2.7-6.7
		c0-2.7,0.9-4.9,2.7-6.7c1.8-1.8,4-2.7,6.6-2.7c2.6,0,4.8,0.9,6.6,2.7c1.8,1.8,2.7,4.1,2.7,6.7c0,2.7-0.9,4.9-2.7,6.7L228,36
		c1.9-1.9,2.8-4.3,2.8-7.1c0-2.8-1-5.2-2.8-7.1c-1.9-2-4.3-2.9-7.1-2.9c-2.8,0-5.2,1-7.1,2.9c-1.9,1.9-2.8,4.3-2.8,7.1
		c0,2.8,0.9,5.2,2.8,7.1l0,0l0,0c1.9,1.9,4.3,2.9,7.1,2.9c2.8,0,5.2-1,7.1-2.9L227.8,35.8 M215.9,34.2l-0.2,0.2
		c1.4,1.5,3.2,2.2,5.3,2.2c2.1,0,3.9-0.7,5.3-2.2c1.4-1.5,2.2-3.3,2.2-5.6c0-2.2-0.7-4.1-2.2-5.6c-1.4-1.5-3.2-2.2-5.3-2.2
		c-2.1,0-3.9,0.7-5.3,2.2c-1.4,1.5-2.2,3.3-2.2,5.6c0,2.2,0.7,4.1,2.2,5.6l0.4-0.4c-1.3-1.3-2-3-2-5.1c0-2.1,0.7-3.8,2-5.1h0
		c1.3-1.3,2.9-2,4.9-2c1.9,0,3.5,0.7,4.9,2c1.3,1.3,2,3,2,5.1c0,2.1-0.7,3.8-2,5.1c-1.3,1.3-2.9,2-4.9,2c-1.9,0-3.5-0.7-4.9-2
		L215.9,34.2z"/>
	<polyline class="st3" points="233.9,38.2 233.9,19.5 236.8,19.5 245.9,34 246,34 245.9,30.4 245.9,19.5 248.3,19.5 248.3,38.2 
		245.8,38.2 236.3,22.9 236.2,22.9 236.3,26.5 236.3,38.2 233.9,38.2 	"/>
	<polyline class="st3" points="233.9,38.2 234.2,38.2 234.2,19.8 236.6,19.8 245.7,34.3 246.3,34.3 246.2,30.4 246.2,19.8 248,19.8 
		248,37.9 246,37.9 236.5,22.6 235.9,22.6 236,26.5 236,37.9 233.9,37.9 233.9,38.2 234.2,38.2 233.9,38.2 233.9,38.5 236.6,38.5 
		236.6,26.5 236.5,22.9 236.2,22.9 236.2,23.3 236.3,23.3 236.3,22.9 236,23.1 245.6,38.5 248.6,38.5 248.6,19.2 245.6,19.2 
		245.6,30.4 245.7,34 246,34 246,33.7 245.9,33.7 245.9,34 246.1,33.9 237,19.2 233.6,19.2 233.6,38.5 233.9,38.5 233.9,38.2 	"/>
	<path class="st3" d="M210.7,65.4c-7.3,0-13.3,5.6-13.3,13.2c0,7.6,6,13.2,13.3,13.2c7.3,0,13.3-5.6,13.3-13.2
		C224,71,218.1,65.4,210.7,65.4 M210.7,86.6c-4,0-7.5-3.3-7.5-8c0-4.8,3.5-8,7.5-8c4,0,7.5,3.3,7.5,8
		C218.2,83.3,214.8,86.6,210.7,86.6z M181.8,65.4c-7.3,0-13.3,5.6-13.3,13.2c0,7.6,6,13.2,13.3,13.2c7.3,0,13.3-5.6,13.3-13.2
		C195.1,71,189.1,65.4,181.8,65.4z M181.8,86.6c-4,0-7.5-3.3-7.5-8c0-4.8,3.5-8,7.5-8c4,0,7.5,3.3,7.5,8
		C189.2,83.3,185.8,86.6,181.8,86.6z M147.3,69.5v5.6h13.4c-0.4,3.2-1.5,5.5-3.1,7.1c-2,2-5,4.1-10.4,4.1c-8.3,0-14.7-6.7-14.7-14.9
		c0-8.3,6.5-14.9,14.7-14.9c4.5,0,7.7,1.8,10.1,4l4-4c-3.4-3.2-7.8-5.7-14.1-5.7c-11.3,0-20.9,9.2-20.9,20.6s9.5,20.5,20.9,20.5
		c6.1,0,10.7-2,14.3-5.8c3.7-3.7,4.9-8.9,4.9-13.1c0-1.3-0.1-2.5-0.3-3.5H147.3z M288.3,73.8c-1.1-3-4.5-8.4-11.3-8.4
		c-6.8,0-12.5,5.4-12.5,13.2c0,7.4,5.6,13.2,13.1,13.2c6.1,0,9.6-3.7,11-5.9l-4.5-3c-1.5,2.2-3.6,3.7-6.5,3.7c-3,0-5.1-1.4-6.4-4
		l17.7-7.3L288.3,73.8z M270.2,78.2c-0.1-5.1,4-7.7,6.9-7.7c2.3,0,4.3,1.2,4.9,2.8L270.2,78.2z M255.8,91.1h5.8V52.2h-5.8V91.1z
		 M246.3,68.4h-0.2c-1.3-1.6-3.8-3-7-3c-6.6,0-12.7,5.8-12.7,13.3c0,7.4,6.1,13.2,12.7,13.2c3.2,0,5.7-1.4,7-3h0.2v1.9
		c0,5.1-2.7,7.8-7.1,7.8c-3.6,0-5.8-2.6-6.7-4.7l-5.1,2.1c1.5,3.5,5.3,7.8,11.7,7.8c6.8,0,12.6-4,12.6-13.8V66.2h-5.5V68.4z
		 M239.6,86.6c-4,0-7.4-3.4-7.4-8c0-4.7,3.4-8.1,7.4-8.1c4,0,7.1,3.4,7.1,8.1C246.7,83.3,243.6,86.6,239.6,86.6z M315.5,52.2h-13.9
		v38.9h5.8V76.3h8.1c6.4,0,12.8-4.7,12.8-12.1S321.9,52.2,315.5,52.2z M315.6,70.9h-8.3V57.6h8.3c4.3,0,6.8,3.6,6.8,6.7
		C322.5,67.3,320,70.9,315.6,70.9z M351.5,65.3c-4.2,0-8.6,1.9-10.4,6l5.2,2.1c1.1-2.1,3.2-2.9,5.3-2.9c3,0,6.1,1.8,6.1,5V76
		c-1.1-0.6-3.3-1.5-6.1-1.5c-5.6,0-11.2,3.1-11.2,8.8c0,5.2,4.6,8.6,9.7,8.6c3.9,0,6.1-1.8,7.4-3.8h0.2v3h5.6V76.1
		C363.3,69.2,358.2,65.3,351.5,65.3z M350.8,86.6c-1.9,0-4.6-0.9-4.6-3.3c0-3,3.3-4.2,6.2-4.2c2.6,0,3.8,0.6,5.3,1.3
		C357.3,84.1,354.2,86.6,350.8,86.6z M383.7,66.2L377.1,83h-0.2L370,66.2h-6.3l10.4,23.6l-5.9,13.1h6.1l16-36.7H383.7z M331.5,91.1
		h5.8V52.2h-5.8V91.1z"/>
	<path class="st10" d="M31.2,21.2c-0.9,1-1.4,2.4-1.4,4.4v68.7c0,1.9,0.5,3.4,1.4,4.4l0.2,0.2L70,60.4v-0.9L31.5,21L31.2,21.2"/>
	<g>
		<defs>
			<path id="SVGID_1_" d="M82.8,73.2L70,60.4v-0.9l12.8-12.8l15.5,8.8c4.3,2.5,4.3,6.5,0,9l-15.2,8.6L82.8,73.2"/>
		</defs>
		<clipPath id="SVGID_2_">
			<use xlink:href="#SVGID_1_"  style="overflow:visible;"/>
		</clipPath>
		
			<linearGradient id="SVGID_3_" gradientUnits="userSpaceOnUse" x1="137.2923" y1="90.2663" x2="140.4034" y2="90.2663" gradientTransform="matrix(-24.1769 0 0 24.1769 3414.7935 -2122.4104)">
			<stop  offset="0" style="stop-color:#FDDF00"/>
			<stop  offset="0.3987" style="stop-color:#FBBD0E"/>
			<stop  offset="0.7744" style="stop-color:#F9A318"/>
			<stop  offset="1" style="stop-color:#F89A1C"/>
		</linearGradient>
		<rect x="70" y="46.7" class="st11" width="32.7" height="26.6"/>
	</g>
	<g>
		<defs>
			<path id="SVGID_4_" d="M83.1,73.1L70,59.9L31.2,98.7c1.4,1.5,3.8,1.7,6.5,0.2L83.1,73.1"/>
		</defs>
		<clipPath id="SVGID_5_">
			<use xlink:href="#SVGID_4_"  style="overflow:visible;"/>
		</clipPath>
		
			<linearGradient id="SVGID_6_" gradientUnits="userSpaceOnUse" x1="136.1406" y1="88.2121" x2="139.2518" y2="88.2121" gradientTransform="matrix(-22.7394 22.7394 22.7394 22.7394 1162.9812 -5037.4194)">
			<stop  offset="0" style="stop-color:#EE4447"/>
			<stop  offset="1" style="stop-color:#C6196D"/>
		</linearGradient>
		<polygon class="st12" points="103.3,80.2 57.2,126.3 11,80.2 57.2,34 		"/>
	</g>
	<g>
		<defs>
			<path id="SVGID_7_" d="M83.1,46.8L37.7,21c-2.7-1.5-5-1.3-6.5,0.2L70,59.9L83.1,46.8"/>
		</defs>
		<clipPath id="SVGID_8_">
			<use xlink:href="#SVGID_7_"  style="overflow:visible;"/>
		</clipPath>
		
			<linearGradient id="SVGID_9_" gradientUnits="userSpaceOnUse" x1="128.7632" y1="87.7651" x2="131.8743" y2="87.7651" gradientTransform="matrix(18.5663 18.5663 18.5663 -18.5663 -4018.0759 -776.5728)">
			<stop  offset="0" style="stop-color:#269E6F"/>
			<stop  offset="5.101573e-02" style="stop-color:#2BA06F"/>
			<stop  offset="0.4664" style="stop-color:#53B26B"/>
			<stop  offset="0.7971" style="stop-color:#6BBD69"/>
			<stop  offset="1" style="stop-color:#74C168"/>
		</linearGradient>
		<polygon class="st13" points="57.2,-6.4 103.3,39.7 57.2,85.9 11,39.7 		"/>
	</g>
</g>
</svg>
