<?xml version="1.0" encoding="utf-8"?>
<!-- Generator: Adobe Illustrator 18.1.1, SVG Export Plug-In . SVG Version: 6.00 Build 0)  -->
<svg version="1.1" id="Layer_1" xmlns="http://www.w3.org/2000/svg" xmlns:xlink="http://www.w3.org/1999/xlink" x="0px" y="0px"
	 viewBox="0 0 200 200" enable-background="new 0 0 200 200" xml:space="preserve">
<g>
	<g opacity="0.65">
		<path fill="#373635" d="M82.7,71L129,96.5c3.1,1.7,3.1,6.2,0,7.9l-46.3,25.5c-3,1.7-6.7-0.5-6.7-4V75C76,71.5,79.7,69.4,82.7,71z"
			/>
	</g>
	<path fill="#FFFFFF" d="M99.7,0.5c-55.2,0-100,44.8-100,100c0,55.2,44.8,100,100,100c55.2,0,100-44.8,100-100
		C199.7,45.2,154.9,0.5,99.7,0.5z M129,104.4l-46.3,25.5c-3,1.7-6.7-0.5-6.7-4V75c0-3.4,3.7-5.6,6.7-4L129,96.5
		C132.1,98.2,132.2,102.7,129,104.4z"/>
</g>
</svg>
