<?xml version="1.0" encoding="utf-8"?>
<!-- Generator: Adobe Illustrator 18.1.1, SVG Export Plug-In . SVG Version: 6.00 Build 0)  -->
<svg version="1.1" id="Layer_1" xmlns="http://www.w3.org/2000/svg" xmlns:xlink="http://www.w3.org/1999/xlink" x="0px" y="0px"
	 viewBox="0 0 120 120" enable-background="new 0 0 120 120" xml:space="preserve">
<path fill="#FFFFFF" d="M112,27H8c-4.4,0-8-3.6-8-8v0c0-4.4,3.6-8,8-8h104c4.4,0,8,3.6,8,8v0C120,23.4,116.4,27,112,27z"/>
<path fill="#FFFFFF" d="M112,67H8c-4.4,0-8-3.6-8-8v0c0-4.4,3.6-8,8-8h104c4.4,0,8,3.6,8,8v0C120,63.4,116.4,67,112,67z"/>
<path fill="#FFFFFF" d="M112,107H8c-4.4,0-8-3.6-8-8v0c0-4.4,3.6-8,8-8h104c4.4,0,8,3.6,8,8v0C120,103.4,116.4,107,112,107z"/>
</svg>
