<?xml version="1.0" encoding="utf-8"?>
<!-- Generator: Adobe Illustrator 18.1.1, SVG Export Plug-In . SVG Version: 6.00 Build 0)  -->
<svg version="1.1" id="Layer_1" xmlns="http://www.w3.org/2000/svg" xmlns:xlink="http://www.w3.org/1999/xlink" x="0px" y="0px"
	 viewBox="0 0 180 180" enable-background="new 0 0 180 180" xml:space="preserve">
<path fill="#FFFFFF" d="M159.4,176.4L3.5,20.5c-4.7-4.7-4.7-12.3,0-17l0,0c4.7-4.7,12.3-4.7,17,0l155.9,155.9c4.7,4.7,4.7,12.3,0,17
	l0,0C171.7,181,164.1,181,159.4,176.4z"/>
<path fill="#FFFFFF" d="M3.5,159.4L159.4,3.5c4.7-4.7,12.3-4.7,17,0l0,0c4.7,4.7,4.7,12.3,0,17L20.5,176.4c-4.7,4.7-12.3,4.7-17,0
	l0,0C-1.2,171.7-1.2,164.1,3.5,159.4z"/>
</svg>
