<?xml version="1.0" encoding="utf-8"?>
<!-- Generator: Adobe Illustrator 18.1.1, SVG Export Plug-In . SVG Version: 6.00 Build 0)  -->
<svg version="1.1" id="Layer_1" xmlns="http://www.w3.org/2000/svg" xmlns:xlink="http://www.w3.org/1999/xlink" x="0px" y="0px"
	 viewBox="0 0 180 180" enable-background="new 0 0 180 180" xml:space="preserve">
<g>
	<rect x="-0.1" y="-0.2" fill="#F5F5F5" width="180" height="180"/>
	<g>
		<path fill="#FFFFFF" stroke="#CCCCCC" stroke-width="2" stroke-miterlimit="10" d="M55.6,48.2h51.1c1.7,0,3,1.3,3,3V121
			c0,1.7-1.3,3-3,3H55.6c-1.7,0-3-1.3-3-3V51.2C52.6,49.6,53.9,48.2,55.6,48.2z"/>
		<g>
			<line fill="none" stroke="#1D1E1C" stroke-width="2" stroke-miterlimit="10" x1="64.5" y1="64.2" x2="97.7" y2="64.2"/>
			<line fill="none" stroke="#1D1E1C" stroke-width="2" stroke-miterlimit="10" x1="64.5" y1="75.2" x2="97.7" y2="75.2"/>
			<line fill="none" stroke="#1D1E1C" stroke-width="2" stroke-miterlimit="10" x1="64.5" y1="86.1" x2="97.7" y2="86.1"/>
			<line fill="none" stroke="#1D1E1C" stroke-width="2" stroke-miterlimit="10" x1="64.5" y1="97.1" x2="97.7" y2="97.1"/>
			<line fill="none" stroke="#1D1E1C" stroke-width="2" stroke-miterlimit="10" x1="64.5" y1="108" x2="84.2" y2="108"/>
		</g>
	</g>
	<g>
		<path fill="#FFFFFF" stroke="#CCCCCC" stroke-width="2" stroke-miterlimit="10" d="M60.3,53h51.1c1.7,0,3,1.3,3,3v69.8
			c0,1.7-1.3,3-3,3H60.3c-1.7,0-3-1.3-3-3V56C57.3,54.3,58.7,53,60.3,53z"/>
		<g>
			<line fill="none" stroke="#1D1E1C" stroke-width="2" stroke-miterlimit="10" x1="69.2" y1="69" x2="102.5" y2="69"/>
			<line fill="none" stroke="#1D1E1C" stroke-width="2" stroke-miterlimit="10" x1="69.2" y1="79.9" x2="102.5" y2="79.9"/>
			<line fill="none" stroke="#1D1E1C" stroke-width="2" stroke-miterlimit="10" x1="69.2" y1="90.9" x2="102.5" y2="90.9"/>
			<line fill="none" stroke="#1D1E1C" stroke-width="2" stroke-miterlimit="10" x1="69.2" y1="101.8" x2="102.5" y2="101.8"/>
			<line fill="none" stroke="#1D1E1C" stroke-width="2" stroke-miterlimit="10" x1="69.2" y1="112.8" x2="88.9" y2="112.8"/>
		</g>
	</g>
	<g>
		<path fill="#FFFFFF" stroke="#CCCCCC" stroke-width="2" stroke-miterlimit="10" d="M65.1,57.7h51.1c1.7,0,3,1.3,3,3v69.8
			c0,1.7-1.3,3-3,3H65.1c-1.7,0-3-1.3-3-3V60.7C62.1,59.1,63.4,57.7,65.1,57.7z"/>
		<g>
			
				<line fill="none" stroke="#000000" stroke-width="3" stroke-linecap="round" stroke-miterlimit="10" x1="75.1" y1="76.7" x2="106.1" y2="76.7"/>
			
				<line fill="none" stroke="#000000" stroke-width="3" stroke-linecap="round" stroke-miterlimit="10" x1="75.1" y1="86.2" x2="106.1" y2="86.2"/>
			
				<line fill="none" stroke="#000000" stroke-width="3" stroke-linecap="round" stroke-miterlimit="10" x1="75.1" y1="95.6" x2="106.1" y2="95.6"/>
			
				<line fill="none" stroke="#000000" stroke-width="3" stroke-linecap="round" stroke-miterlimit="10" x1="75.1" y1="105.1" x2="106.1" y2="105.1"/>
			
				<line fill="none" stroke="#000000" stroke-width="3" stroke-linecap="round" stroke-miterlimit="10" x1="75.1" y1="114.6" x2="93.5" y2="114.6"/>
		</g>
	</g>
	<g>
		<path fill="#E4231F" d="M119.9,140.3h-11.6c-3.3,0-6-2.7-6-6v-11.6c0-3.3,2.7-6,6-6h11.6c3.3,0,6,2.7,6,6v11.6
			C125.9,137.6,123.3,140.3,119.9,140.3z"/>
		<g>
			<path fill="#FFFFFF" stroke="#FFFFFF" stroke-miterlimit="10" d="M114.3,120.1c-0.3,0-0.5,0.1-0.6,0.4c-0.2,0.3-0.3,0.6-0.3,1.1
				c0,0.9,0.2,2.2,0.8,3.8c-0.5,1.8-3.1,7.1-3.2,7.3c-3.9,1.1-4.5,1.9-4.8,2.5c-0.3,0.7,0,2,1,2c0.5,0,1.6,0.4,4-4.1
				c1.1-0.3,2.4-0.5,4-0.8c1.1-0.2,2-0.2,2.8-0.3c1.9,2.1,3.1,2,3.7,1.9h0.2c0.2,0,0.4-0.1,0.6-0.4c0.2-0.3,0.2-0.7-0.1-1
				c-0.4-0.5-2-1.4-4.8-1.2c-1.1-1.2-1.3-1.9-1.9-3c-0.6-1.1-0.9-1.9-1.2-2.6c0.7-2.5,0.9-3.9,0.9-3.9c0-0.2-0.1-0.6-0.1-0.7
				C115.1,120.3,114.7,120,114.3,120.1z M113.8,121.6c0-0.4,0.1-0.7,0.2-0.9c0.1-0.1,0.2-0.1,0.3-0.1c0.2,0,0.8,0.2,0.6,0.9
				c0,0.3-0.1,1.8-0.7,3.7C113.8,123.7,113.7,122.3,113.8,121.6z M111.8,132.2c0.8-1.5,1.8-3.4,2.7-6.1c0.3,0.7,0.5,1.3,1,2.1
				c0.8,1.4,1.3,2.3,1.9,3.1c-0.7,0-1.6,0.2-2.5,0.4C113.5,131.9,111.7,132.3,111.8,132.2z M106.8,136.7c-0.8-0.4-0.5-1.9,3.3-3
				C108.4,136.5,107.5,136.9,106.8,136.7z M122.1,132.8c0.2,0.2,0.1,0.4,0,0.6c-0.1,0.1-0.2,0.2-0.2,0.2h-0.3
				c-0.5,0.1-2,0.1-3.6-1.6C120.7,131.9,121.9,132.5,122.1,132.8z"/>
		</g>
	</g>
</g>
</svg>
