<?xml version="1.0" encoding="utf-8"?>
<!-- Generator: Adobe Illustrator 19.1.0, SVG Export Plug-In . SVG Version: 6.00 Build 0)  -->
<svg version="1.1" id="Layer_1" xmlns="http://www.w3.org/2000/svg" xmlns:xlink="http://www.w3.org/1999/xlink" x="0px" y="0px"
	 viewBox="0 0 31.6 25.7" style="enable-background:new 0 0 31.6 25.7;" xml:space="preserve">
<style type="text/css">
	.st0{fill:#FFFFFF;}
</style>
<path class="st0" d="M28.4,6.4c0,0.3,0,0.6,0,0.8c0,8.6-6.5,18.4-18.4,18.4c-3.7,0-7.1-1.1-9.9-2.9c0.5,0.1,1,0.1,1.5,0.1
	c3,0,5.8-1,8.1-2.8c-2.8-0.1-5.2-1.9-6.1-4.5c0.4,0.1,0.8,0.1,1.2,0.1c0.6,0,1.2-0.1,1.7-0.2c-3-0.6-5.2-3.2-5.2-6.4
	c0,0,0-0.1,0-0.1c0.9,0.5,1.9,0.8,2.9,0.8C2.5,8.7,1.3,6.7,1.3,4.4c0-1.2,0.3-2.3,0.9-3.3c3.2,3.9,8,6.5,13.4,6.8
	c-0.1-0.5-0.2-1-0.2-1.5c0-3.6,2.9-6.5,6.5-6.5c1.9,0,3.5,0.8,4.7,2c1.5-0.3,2.9-0.8,4.1-1.6c-0.5,1.5-1.5,2.8-2.9,3.6
	c1.3-0.2,2.6-0.5,3.7-1C30.7,4.3,29.6,5.5,28.4,6.4z"/>
</svg>
