<?xml version="1.0" encoding="utf-8"?>
<!-- Generator: Adobe Illustrator 19.1.0, SVG Export Plug-In . SVG Version: 6.00 Build 0)  -->
<svg version="1.1" id="Layer_1" xmlns="http://www.w3.org/2000/svg" xmlns:xlink="http://www.w3.org/1999/xlink" x="0px" y="0px"
	 viewBox="-330 505.5 180 180" style="enable-background:new -330 505.5 180 180;" xml:space="preserve">
<path d="M-170.6,681.9L-326.5,526c-4.7-4.7-4.7-12.3,0-17l0,0c4.7-4.7,12.3-4.7,17,0l155.9,155.9c4.7,4.7,4.7,12.3,0,17l0,0
	C-158.3,686.5-165.9,686.5-170.6,681.9z"/>
<path d="M-326.5,664.9L-170.6,509c4.7-4.7,12.3-4.7,17,0l0,0c4.7,4.7,4.7,12.3,0,17l-155.9,155.9c-4.7,4.7-12.3,4.7-17,0l0,0
	C-331.2,677.2-331.2,669.6-326.5,664.9z"/>
</svg>