<?xml version="1.0" encoding="utf-8"?>
<!-- Generator: Adobe Illustrator 18.1.1, SVG Export Plug-In . SVG Version: 6.00 Build 0)  -->
<svg version="1.1" id="Layer_1" xmlns="http://www.w3.org/2000/svg" xmlns:xlink="http://www.w3.org/1999/xlink" x="0px" y="0px"
	 viewBox="0 0 200 200" enable-background="new 0 0 200 200" xml:space="preserve">
<path fill="#FFFFFF" d="M177.3,196.1l-50.9-50.9c-5.2-5.2-5.2-13.7,0-18.9l0,0c5.2-5.2,13.7-5.2,18.9,0l50.9,50.9
	c5.2,5.2,5.2,13.7,0,18.9l0,0C190.9,201.3,182.4,201.3,177.3,196.1z"/>
<path fill="#FFFFFF" d="M82.3,26.7c30.7,0,55.7,25,55.7,55.7S113,138,82.3,138s-55.7-25-55.7-55.7S51.6,26.7,82.3,26.7 M82.3,0
	C36.9,0,0,36.9,0,82.3s36.9,82.3,82.3,82.3s82.3-36.9,82.3-82.3S127.8,0,82.3,0L82.3,0z"/>
</svg>
