<?xml version="1.0" encoding="utf-8"?>
<!-- Generator: Adobe Illustrator 18.1.1, SVG Export Plug-In . SVG Version: 6.00 Build 0)  -->
<svg version="1.1" id="Layer_1" xmlns="http://www.w3.org/2000/svg" xmlns:xlink="http://www.w3.org/1999/xlink" x="0px" y="0px"
	 viewBox="0 0 200 200" enable-background="new 0 0 200 200" xml:space="preserve">
<circle fill="#0087B4" cx="100" cy="100" r="100"/>
<g>
	<path fill="#FFFFFF" d="M86.8,117.1c-2.1,0-3.8-1.7-3.8-3.8v-2.6c0-4.8,1-8.9,2.9-12.2c2-3.3,5.5-6.5,10.5-9.7
		c4-2.5,6.8-4.8,8.6-6.8c1.7-2,2.6-4.3,2.6-6.9c0-2.1-0.9-3.7-2.8-4.9c-1.9-1.2-4.3-1.8-7.3-1.8c-5.1,0-10.7,1.2-17,3.7
		c-5.3,2.1-11.3-0.3-13.9-5.4l-0.1-0.3c-3-5.9-0.4-13.1,5.8-15.5c8.8-3.5,17.9-5.2,27.3-5.2c10.9,0,19.5,2.4,25.8,7.2
		c6.2,4.8,9.4,11.4,9.4,19.7c0,5.9-1.4,11.1-4.2,15.4c-2.8,4.3-7.2,8.5-13.3,12.3c-5.2,3.3-8.4,5.8-9.7,7.3c-1.3,1.5-2,3.4-2,5.5
		l0,0c0,2.1-1.7,3.8-3.8,3.8H86.8z"/>
	<path fill="#FFFFFF" d="M81.3,141c0-4.2,1.2-7.4,3.7-9.7c2.4-2.3,6-3.4,10.8-3.4c4.6,0,8.1,1.2,10.5,3.5c2.4,2.3,3.7,5.5,3.7,9.7
		c0,4.1-1.3,7.4-3.8,9.6s-6,3.4-10.4,3.4c-4.5,0-8-1.1-10.6-3.4C82.6,148.5,81.3,145.2,81.3,141z"/>
</g>
</svg>
