<?xml version="1.0" encoding="utf-8"?>
<!-- Generator: Adobe Illustrator 18.1.1, SVG Export Plug-In . SVG Version: 6.00 Build 0)  -->
<svg version="1.1" id="Layer_1" xmlns="http://www.w3.org/2000/svg" xmlns:xlink="http://www.w3.org/1999/xlink" x="0px" y="0px"
	 viewBox="0 0 180 180" enable-background="new 0 0 180 180" xml:space="preserve">
<g>
	<rect x="0" fill="#F5F5F5" width="180" height="180"/>
	<g>
		<g>
			<g>
				<path fill="#FFFFFF" stroke="#CCCCCC" stroke-width="2" stroke-miterlimit="10" d="M118.1,126.8h-69c-1.7,0-3-1.3-3-3v-77
					c0-1.7,1.3-3,3-3h69c1.7,0,3,1.3,3,3v77C121.1,125.4,119.8,126.8,118.1,126.8z"/>
			</g>
			<circle fill="none" stroke="#1D1E1C" stroke-width="2" stroke-miterlimit="10" cx="67.9" cy="68.5" r="7.4"/>
		</g>
		<g>
			<g>
				<path fill="#FFFFFF" stroke="#CCCCCC" stroke-width="2" stroke-miterlimit="10" d="M122.9,131.5h-69c-1.7,0-3-1.3-3-3v-77
					c0-1.7,1.3-3,3-3h69c1.7,0,3,1.3,3,3v77C125.9,130.2,124.5,131.5,122.9,131.5z"/>
			</g>
			<circle fill="none" stroke="#1D1E1C" stroke-width="2" stroke-miterlimit="10" cx="72.7" cy="73.2" r="7.4"/>
		</g>
		<g>
			<g>
				<path fill="#FFFFFF" stroke="#CCCCCC" stroke-width="2" stroke-miterlimit="10" d="M127.6,136.3h-69c-1.7,0-3-1.3-3-3v-77
					c0-1.7,1.3-3,3-3h69c1.7,0,3,1.3,3,3v77C130.6,134.9,129.3,136.3,127.6,136.3z"/>
			</g>
		</g>
		<path fill="#F5F5F5" stroke="#CCCCCC" stroke-miterlimit="10" d="M124.7,118H61.5c-0.6,0-1-0.4-1-1V59c0-0.6,0.4-1,1-1h63.2
			c0.6,0,1,0.4,1,1v58C125.7,117.6,125.3,118,124.7,118z"/>
		<g>
			<path d="M93.6,82.8c-0.9,0-1.7,0.3-2.3,0.7C90.8,83,89.1,83,89.1,83l-0.2,3l-0.6,11.4h2.2h0l0.3-6.2c0.5,0.4,1.2,0.6,2,0.6
				c1.9,0,4-1.4,4.2-4.6C97.2,84.7,95.7,82.8,93.6,82.8z M92.7,89.9c-0.8,0-1.5-0.6-1.7-1.4c0-0.1,0-0.3,0-0.5l0.1-1.4
				c0-0.1,0-0.2,0.1-0.4c0,0,0-0.1,0-0.1c0.3-0.8,1-1.4,1.8-1.4c1.3,0,1.8,1.3,1.8,2.5C94.8,88.6,94.2,89.9,92.7,89.9z"/>
			<path d="M102.7,82.8c-0.9,0-1.7,0.3-2.3,0.7C99.9,83,98.2,83,98.2,83l-0.2,3l-0.6,11.4h2.2h0l0.3-6.2c0.5,0.4,1.2,0.6,2,0.6
				c1.9,0,4-1.4,4.2-4.6C106.3,84.7,104.9,82.8,102.7,82.8z M101.9,89.9c-0.8,0-1.5-0.6-1.7-1.4c0-0.1,0-0.3,0-0.5l0.1-1.4
				c0-0.1,0-0.2,0.1-0.4c0,0,0-0.1,0-0.1c0.3-0.8,1-1.4,1.8-1.4c1.3,0,1.8,1.3,1.8,2.5C103.9,88.6,103.3,89.9,101.9,89.9z"/>
			<path d="M78.7,90c-0.5,0-0.9-0.2-0.9-1.3l0,0l0.1-2.1c0.1-2.8-1.5-3.7-3-3.7c-0.1,0-0.2,0-0.3,0c-0.1,0-0.2,0-0.3,0c0,0,0,0,0,0
				c-1.5,0.2-2.2,1.3-2.3,1.3l0.3-4.9c0.1-2-2.1-2-2.1-2l-0.4,8.3l-0.3,6.1h2.2l0.1-2.3c0.3-4,1.9-4.5,2.4-4.6c0.1,0,0.1,0,0.2,0
				c0.9,0,1.4,0.6,1.3,1.9l-0.1,2.1h0c0,0,0,0,0,0l0,0.1h0c0,0.9,0.1,2,0.9,2.6c0.1,0.1,1.2,0.7,2.2,0c0.4-0.3,0.7-0.7,0.7-1.5
				C79.2,89.9,79,90,78.7,90z"/>
			<path d="M116.1,90c-0.5,0-0.9-0.2-0.9-1.3l0,0l0.1-2.1c0.1-2.8-1.5-3.7-3-3.7c-0.1,0-0.2,0-0.3,0c-0.1,0-0.2,0-0.3,0c0,0,0,0,0,0
				c-1.5,0.2-2.2,1.3-2.3,1.3l0-0.7c-0.6-0.5-2.2-0.5-2.2-0.5l-0.1,2.5l-0.3,6.1h2.2l0.1-2.3c0.3-4,1.9-4.5,2.4-4.6
				c0.1,0,0.1,0,0.2,0c0.9,0,1.4,0.6,1.3,1.9l-0.1,2.1h0c0,0,0,0,0,0l0,0.1h0c0,0.9,0.1,2,0.9,2.6c0.1,0.1,1.2,0.7,2.2,0
				c0.4-0.3,0.7-0.7,0.7-1.5C116.6,89.9,116.4,90,116.1,90z"/>
			<path d="M85.5,83l0,0.6c-0.6-0.5-1.3-0.7-2.2-0.7c-2.2,0-3.8,1.8-4,4.4c-0.2,3.2,1.8,4.6,3.7,4.6c0.8,0,1.5-0.2,2.1-0.6v0
				c0.4,0.4,1.7,0.4,2.1,0.5h0.1l0.3-5.7l0.1-2.4C87.2,83,85.5,83,85.5,83z M85.2,88.1c0,0.2,0,0.4-0.1,0.5c-0.2,0.8-1,1.4-1.8,1.4
				c-1.5,0-1.9-1.4-1.8-2.6c0.1-1.2,0.7-2.5,2-2.5c0.8,0,1.5,0.6,1.7,1.4c0,0,0,0.1,0,0.1c0,0.1,0,0.3,0,0.4L85.2,88.1z"/>
		</g>
	</g>
</g>
</svg>
