<?xml version="1.0" encoding="utf-8"?>
<!-- Generator: Adobe Illustrator 18.1.1, SVG Export Plug-In . SVG Version: 6.00 Build 0)  -->
<svg version="1.1" id="Layer_1" xmlns="http://www.w3.org/2000/svg" xmlns:xlink="http://www.w3.org/1999/xlink" x="0px" y="0px"
	 viewBox="44.3 18.8 81.4 34.6" enable-background="new 44.3 18.8 81.4 34.6" xml:space="preserve">
<g>
	<path fill="#FFFFFF" d="M85.8,28.4c-1.5,0-2.9,0.4-3.9,1.3c-0.9-1-3.8-1-3.8-1l-0.3,5.1l-1,19.6h3.8l0,0l0.6-10.7
		c0.9,0.7,2.1,1.1,3.4,1.1c3.3,0,6.9-2.5,7.2-7.9C92.1,31.5,89.5,28.4,85.8,28.4z M84.4,40.5c-1.4,0-2.6-1-2.9-2.3
		c0-0.2,0-0.5,0-0.8l0.1-2.3c0-0.2,0-0.4,0.1-0.7c0-0.1,0-0.1,0-0.2c0.5-1.4,1.8-2.5,3.2-2.5c2.3,0,3.2,2.2,3,4.3
		C87.9,38.2,86.8,40.5,84.4,40.5z"/>
	<path fill="#FFFFFF" d="M101.5,28.4c-1.5,0-2.9,0.4-3.9,1.3c-0.9-1-3.8-1-3.8-1l-0.3,5.1l-1,19.6h3.8l0,0l0.6-10.7
		c0.9,0.7,2.1,1.1,3.4,1.1c3.3,0,6.9-2.5,7.2-7.9C107.8,31.5,105.3,28.4,101.5,28.4z M100.1,40.5c-1.4,0-2.6-1-2.9-2.3
		c0-0.2,0-0.5,0-0.8l0.1-2.3c0-0.2,0-0.4,0.1-0.7c0-0.1,0-0.1,0-0.2c0.5-1.4,1.8-2.5,3.2-2.5c2.3,0,3.2,2.2,3,4.3
		C103.6,38.2,102.6,40.5,100.1,40.5z"/>
	<path fill="#FFFFFF" d="M60.2,40.6c-0.8,0-1.6-0.3-1.5-2.3l0,0l0.2-3.6c0.3-4.7-2.6-6.4-5.1-6.4c-0.2,0-0.4,0-0.6,0
		c-0.2,0-0.3,0-0.5,0c0,0,0,0,0,0c-2.6,0.4-3.8,2.2-3.9,2.3l0.4-8.5c0.2-3.4-3.6-3.5-3.6-3.5L44.8,33l-0.6,10.5h3.9l0.2-3.9
		c0.5-6.9,3.2-7.8,4.1-7.8c0.1,0,0.2,0,0.3,0c1.6,0,2.4,1.1,2.3,3.3l-0.2,3.6l0,0c0,0,0,0,0,0v0.1l0,0c-0.1,1.6,0.1,3.5,1.6,4.4
		c0.2,0.1,2.1,1.2,3.8,0c0.6-0.5,1.2-1.3,1.2-2.6C61.1,40.5,60.8,40.6,60.2,40.6z"/>
	<path fill="#FFFFFF" d="M124.5,40.6c-0.8,0-1.6-0.3-1.5-2.3l0,0l0.2-3.6c0.3-4.7-2.6-6.4-5.1-6.4c-0.2,0-0.4,0-0.6,0
		c-0.2,0-0.3,0-0.5,0c0,0,0,0,0,0c-2.6,0.4-3.8,2.2-3.9,2.3l0-1.2c-1.1-0.9-3.8-0.9-3.8-0.9l-0.2,4.3l-0.6,10.5h3.9l0.2-3.9
		c0.5-6.9,3.2-7.8,4.1-7.8c0.1,0,0.2,0,0.3,0c1.6,0,2.4,1.1,2.3,3.3l-0.2,3.6l0,0c0,0,0,0,0,0v0.1l0,0c-0.1,1.6,0.1,3.5,1.6,4.4
		c0.2,0.1,2.1,1.2,3.8,0c0.6-0.5,1.2-1.3,1.2-2.6C125.3,40.5,125,40.6,124.5,40.6z"/>
	<path fill="#FFFFFF" d="M72,28.7l0,1c-1-0.8-2.3-1.3-3.8-1.3c-3.7,0-6.6,3.2-6.8,7.5c-0.3,5.4,3.1,7.9,6.4,7.9
		c1.3,0,2.6-0.4,3.6-1.1l0,0c0.7,0.7,2.9,0.8,3.6,0.8H75l0.5-9.8l0.2-4.1C74.8,28.7,72,28.7,72,28.7z M71.5,37.3
		c0,0.3,0,0.6-0.1,0.8c-0.4,1.4-1.7,2.3-3.1,2.3c-2.5,0-3.3-2.3-3.2-4.5c0.1-2.1,1.3-4.3,3.5-4.3c1.4,0,2.6,1,2.9,2.5
		c0,0.1,0,0.1,0,0.2c0,0.2,0,0.5,0,0.7L71.5,37.3z"/>
</g>
</svg>
